<?xml version="1.0" encoding="UTF-8" standalone="no"?>
<!-- Created with Inkscape (http://www.inkscape.org/) -->

<svg
   width="72.151169mm"
   height="70.524391mm"
   viewBox="0 0 72.151169 70.524391"
   version="1.1"
   id="svg3769"
   xml:space="preserve"
   inkscape:version="1.2.1 (9c6d41e, 2022-07-14)"
   sodipodi:docname="QuizCube Logo v1.svg"
   xmlns:inkscape="http://www.inkscape.org/namespaces/inkscape"
   xmlns:sodipodi="http://sodipodi.sourceforge.net/DTD/sodipodi-0.dtd"
   xmlns="http://www.w3.org/2000/svg"
   xmlns:svg="http://www.w3.org/2000/svg"><sodipodi:namedview
     id="namedview3771"
     pagecolor="#505050"
     bordercolor="#eeeeee"
     borderopacity="1"
     inkscape:showpageshadow="0"
     inkscape:pageopacity="0"
     inkscape:pagecheckerboard="0"
     inkscape:deskcolor="#505050"
     inkscape:document-units="mm"
     showgrid="false"
     inkscape:zoom="2.247338"
     inkscape:cx="115.69243"
     inkscape:cy="149.73271"
     inkscape:window-width="1800"
     inkscape:window-height="1097"
     inkscape:window-x="0"
     inkscape:window-y="44"
     inkscape:window-maximized="1"
     inkscape:current-layer="layer1" /><defs
     id="defs3766" /><g
     inkscape:label="Layer 1"
     inkscape:groupmode="layer"
     id="layer1"
     transform="translate(-75.71066,-78.064402)"><g
       id="g5709"
       style="display:inline"><path
         style="display:none;fill:#fefcfc;stroke-width:0.0846667"
         d="m 44.578766,113.26272 c 0,-66.167002 0,-66.167002 66.167004,-66.167002 66.167,0 66.167,0 66.167,66.167002 0,66.167 0,66.167 -66.167,66.167 -66.167004,0 -66.167004,0 -66.167004,-66.167 z m 67.379534,35.00315 c 0.037,-0.39424 0.0525,-0.40362 0.89262,-0.53961 1.74647,-0.28272 2.78446,-1.80674 2.85967,-4.19865 0.0301,-0.95688 -0.0904,-1.0293 -0.96931,-0.58266 -1.55827,0.79186 -2.11681,1.35538 -2.38518,2.40643 -0.23196,0.90849 -0.298,0.85296 -0.298,-0.25053 0,-1.00408 0,-1.00408 0.34011,-1.45454 0.83266,-1.10286 0.86161,-2.73513 0.0389,-2.19611 -0.19801,0.12974 -0.20339,0.12638 -0.25724,-0.16065 -0.0302,-0.16124 -0.12718,-0.37639 -0.21541,-0.47812 -0.0882,-0.10173 -0.16041,-0.29494 -0.16041,-0.42937 0,-0.32308 -0.27739,-0.85451 -0.56348,-1.07956 -1.13957,-0.89638 -1.06882,3.41341 0.0739,4.5019 0.41843,0.39857 0.53614,2.19202 0.27256,4.15251 -0.0365,0.27158 -0.0195,0.44612 0.0517,0.53198 0.15938,0.19205 0.28905,0.10154 0.31951,-0.22302 z m -0.78261,-0.51989 c 0.47097,-0.21459 0.0712,-2.42686 -0.63844,-3.53268 -0.75653,-1.17895 -2.56619,-2.34787 -3.0967,-2.00025 -0.59259,0.38827 -0.0955,3.27235 0.76557,4.44207 0.65971,0.89615 2.17512,1.45283 2.96957,1.09086 z m 27.63708,-2.26396 c 2.31704,-0.59481 2.54,-0.82748 2.54,-2.65071 0,-3.5039 -1.19663,-5.43592 -3.60514,-5.82068 -0.79591,-0.12715 -0.79753,-0.12473 -0.79753,1.19678 0,1.09031 0,1.09031 -1.01268,1.09031 -1.26209,0 -2.37346,-0.11866 -3.88262,-0.41454 -1.21636,-0.23846 -1.37003,-0.24368 -1.37003,-0.0464 0,0.32371 3.39454,0.88431 5.35465,0.88431 0.91068,0 0.91068,0 0.91068,2.9464 0,3.55035 -0.14574,3.33014 1.86267,2.81457 z m -48.300087,-0.81156 c 1.205914,-0.27967 3.155613,-2.1171 2.818776,-2.65646 -0.08329,-0.13336 -0.08383,-0.29288 -0.0026,-0.76659 0.256713,-1.49703 0.130131,-2.06416 -0.76234,-3.41553 -0.604616,-0.91551 -0.604616,-0.91551 -0.462518,-1.15607 0.371187,-0.62837 0.0821,-1.78076 -0.446719,-1.78076 -0.425527,0 -0.475069,0.18159 -0.588644,2.15752 -0.1468,2.55396 -0.369757,3.3335 -1.311857,4.58677 -0.372763,0.49589 -0.626426,0.69525 -1.998013,1.57035 -1.226069,0.78225 -1.574218,1.28303 -0.9525,1.37008 0.221191,0.031 0.630766,0.11193 0.910166,0.17991 0.61605,0.14988 1.948598,0.10737 2.796251,-0.0892 z m -3.392435,-1.60772 c 2.25434,-0.58718 3.595473,-2.58745 3.631311,-5.41602 0.0148,-1.16787 -0.155345,-1.44867 -0.333448,-0.55034 -0.225757,1.13871 -0.560134,1.37271 -1.121191,0.78459 -1.317923,-1.38147 -2.383728,-0.96321 -2.386117,0.93641 -0.0017,1.3249 0.03051,1.28294 -0.990441,1.29216 -1.377782,0.0125 -1.971596,0.42413 -1.971596,1.36688 0,1.2852 1.481883,2.02641 3.171482,1.58632 z m 57.086092,-1.17903 c 1.20181,-1.3484 2.04808,-3.43898 2.23938,-5.53204 0.14039,-1.53604 -0.1977,-1.82166 -1.62901,-1.37619 -0.63762,0.19845 -0.63333,0.20046 -0.70353,-0.32871 -0.0307,-0.23179 -0.11171,-0.5796 -0.17992,-0.77292 -0.15728,-0.4458 -0.22355,-0.37429 0.9821,-1.05985 1.07493,-0.61124 1.18525,-0.71683 1.02202,-0.9782 -0.0543,-0.087 -0.18858,-0.39677 -0.29835,-0.6884 -1.2435,-3.30367 -5.54107,-6.33676 -7.40748,-5.22795 -0.87289,0.51857 -3.37286,0.55839 -4.04628,0.0644 -1.45871,-1.06996 -5.92514,2.27606 -7.45335,5.58366 -1.06337,2.30153 -1.10808,5.67376 -0.0773,5.82834 2.02885,0.30424 3.51258,-1.4063 4.58083,-5.2811 1.15894,-4.20375 2.16075,-5.25112 5.27469,-5.51454 2.31538,-0.19587 4.23273,1.23569 6.08061,4.54 0.33481,0.5987 0.81837,1.86887 0.75224,1.97589 -0.14023,0.22688 -2.43617,0.80208 -3.72591,0.93344 -1.69265,0.17239 -1.66384,0.1667 -1.63223,0.32226 0.0612,0.3014 2.52236,0.0661 4.04523,-0.38669 1.63625,-0.48655 1.4562,-0.57105 1.68818,0.79232 0.31006,1.82218 0.23614,3.9686 -0.19943,5.79026 -0.36915,1.54394 -0.0538,2.14765 0.68749,1.31599 z m -66.364068,-4.76772 c 0.04407,-0.0823 0.10769,-0.30142 0.141373,-0.48683 0.0429,-0.23616 0.182979,-0.46699 0.467756,-0.77081 0.366978,-0.39151 0.41224,-0.48432 0.465422,-0.95438 0.07831,-0.69217 0.15096,-0.70568 0.463662,-0.0862 0.595453,1.17959 1.61602,1.77796 2.368643,1.38875 0.37925,-0.19611 0.421995,-0.35876 0.47974,-1.82552 0.0608,-1.54441 0.05204,-1.52414 0.74591,-1.72586 1.562613,-0.45426 1.490855,-1.91842 -0.122858,-2.50681 -0.577989,-0.21074 -0.592097,-0.23931 -0.304413,-0.61648 0.927959,-1.21662 0.783256,-3.01586 -0.219578,-2.73024 -0.249423,0.071 -0.835611,0.16725 -1.30264,0.2138 -1.029782,0.10266 -1.460936,0.24628 -2.030667,0.67643 -0.451321,0.34075 -2.555706,2.43629 -2.807324,2.79553 -0.155361,0.22181 -0.182432,-0.0358 0.365118,3.47421 0.07938,0.50883 0.204934,0.94878 0.343347,1.2031 0.184341,0.33869 0.207922,0.45731 0.151923,0.76415 -0.104041,0.57011 -0.09038,1.0491 0.0342,1.19921 0.156701,0.18882 0.657131,0.1809 0.760382,-0.012 z m 32.935928,-1.25834 c 0.45019,-0.31532 0.43352,0.12519 0.42952,-11.35271 -0.003,-8.89924 -0.0232,-10.70522 -0.12216,-10.98822 -0.20991,-0.60024 -0.67357,-0.90195 -4.02279,-2.61771 -12.645831,-6.47828 -12.242564,-6.30361 -12.940943,-5.60517 -0.423548,0.42359 -0.503862,21.23187 -0.08501,22.02522 0.369393,0.69968 0.933862,1.14762 2.327756,1.8472 0.691823,0.34722 1.886511,0.96405 2.654861,1.37072 1.513436,0.80104 5.050176,2.63145 8.438346,4.3672 2.31802,1.18751 2.79198,1.32361 3.32042,0.95347 z m -8.61744,-12.35251 c -0.40646,-0.36722 -0.46545,-0.70975 -0.15915,-0.92429 0.42266,-0.29604 0.70971,-0.14985 1.19228,0.60722 0.29356,0.46054 0.28736,0.53073 -0.047,0.53214 -0.15134,6.7e-4 -0.35699,0.0231 -0.457,0.0499 -0.1323,0.0355 -0.27645,-0.0367 -0.52917,-0.26501 z m 11.87004,11.59104 c 0.14903,-0.0756 1.05202,-0.59615 2.00663,-1.15667 0.95462,-0.56053 2.61197,-1.53295 3.683,-2.16095 8.07902,-4.73714 8.4236,-4.96995 8.68029,-5.86499 0.0518,-0.1807 0.0827,-4.17201 0.0827,-10.68831 0,-12.60959 0.23998,-11.55117 -2.28619,-10.08318 -0.76825,0.44643 -2.19691,1.27018 -3.17481,1.83054 -0.9779,0.56037 -2.2733,1.31289 -2.87866,1.67227 -0.60537,0.35938 -1.59597,0.93079 -2.20134,1.26979 -0.60536,0.33901 -1.44356,0.81693 -1.86266,1.06205 -0.4191,0.24512 -1.143,0.66882 -1.60867,0.94155 -0.99557,0.58308 -1.40723,0.93372 -1.71919,1.46436 -0.36766,0.6254 -0.35867,21.33012 0.009,21.64674 0.28656,0.24649 0.8564,0.27648 1.26948,0.0668 z m -27.532285,-0.86649 c 0.355992,-0.27744 0.748068,-0.44238 1.660795,-0.69867 2.362445,-0.66336 2.986123,-1.33145 2.986123,-3.19877 0,-1.39287 -0.04645,-1.47105 -0.541419,-0.91117 -0.371956,0.42073 -0.783423,0.63584 -2.294915,1.19978 -2.18289,0.81443 -2.243666,0.88041 -2.243666,2.43571 0,1.42088 0.02573,1.49058 0.433082,1.17312 z M 82.984013,120.5749 c 1.026033,-0.3818 1.802924,-1.17034 2.194867,-2.22778 0.121719,-0.32839 0.272554,-0.65422 0.33519,-0.72407 0.179196,-0.19984 0.282543,-13.26656 0.106748,-13.49692 -0.242953,-0.31837 -0.401919,-0.11379 -0.403348,0.5191 -0.0016,0.7246 -0.304687,1.01574 -3.576556,3.43607 -1.1707,0.86601 -1.078489,0.83747 -1.080111,0.33425 -0.0015,-0.47422 -0.08683,-0.64188 -0.305183,-0.59985 -0.189392,0.0365 -0.298499,10.05415 -0.111951,10.27893 0.06444,0.0776 0.06477,0.20366 0.0011,0.43281 -0.483573,1.74145 0.927318,2.75889 2.839201,2.04746 z m -2.505284,-6.23268 c 6.77e-4,-1.75789 0.02929,-3.23678 0.0635,-3.28642 0.03421,-0.0496 0.252704,-0.21919 0.485537,-0.37678 0.591288,-0.40021 3.504901,-2.52119 3.79533,-2.76284 0.13163,-0.10952 0.274505,-0.19913 0.3175,-0.19913 0.0847,0 0.113203,8.53086 0.02923,8.74968 -0.04007,0.10442 -0.11294,0.083 -0.402167,-0.11797 -1.005881,-0.69908 -2.498833,-0.43025 -3.619675,0.6518 -0.306412,0.2958 -0.582637,0.53782 -0.613834,0.53782 -0.0312,0 -0.05614,-1.43827 -0.05542,-3.19616 z m 0.01523,-4.40267 c 0.02506,-0.39048 0.04273,-0.41447 0.608242,-0.8255 0.32034,-0.23283 1.32999,-1.00358 2.243667,-1.71277 1.888051,-1.46549 1.891878,-1.46725 1.856155,-0.85249 -0.02559,0.4404 -0.02559,0.4404 -1.676591,1.70188 -2.898247,2.21446 -3.071386,2.31092 -3.031473,1.68888 z m 58.153011,8.35977 c 0.0252,-1.23343 0.0538,-2.24695 0.0635,-2.25227 0.01,-0.005 0.17955,-0.073 0.37746,-0.15042 0.53209,-0.20815 1.63637,-1.39757 2.60613,-2.80706 0.80177,-1.16535 -0.53368,-1.23744 -1.75521,-0.0947 -0.96255,0.90041 -0.66659,0.43281 0.54342,-0.85858 2.03962,-2.17678 2.33504,-3.99615 1.14609,-7.05809 -1.05111,-2.70694 -4.31535,-5.328246 -4.65253,-3.73616 -0.12811,0.6049 -0.0782,2.64514 0.0807,3.30144 0.23226,0.95911 0.13042,1.17625 -0.23099,0.49249 -0.5875,-1.11151 -0.90657,-0.28137 -0.55277,1.43813 0.30407,1.47781 0.22258,1.6248 -0.39767,0.71736 -0.6852,-1.00249 -1.08198,-0.95376 -1.02531,0.12594 0.0416,0.79255 0.27118,1.34215 0.91908,2.2003 0.50846,0.67344 0.401,0.72258 -0.24582,0.11241 -0.65033,-0.61349 -0.86779,-0.71313 -1.06962,-0.49011 -0.40523,0.44777 0.27784,1.656 2.16337,3.8266 0.70929,0.81653 0.51214,0.91829 -0.31344,0.16179 -1.43361,-1.31363 -1.91157,-0.86074 -0.81098,0.76844 0.98571,1.45915 1.47481,1.8889 2.2809,2.00413 0.40449,0.0578 0.40449,0.0578 0.42602,2.21582 0.0232,2.32802 0.0306,2.39644 0.25338,2.35368 0.1356,-0.026 0.15238,-0.22223 0.19429,-2.27109 z M 119.5546,106.20324 c 1.70775,-0.77573 0.77693,-3.025 -1.14627,-2.76988 -0.31615,0.0419 -0.4253,0.0286 -0.43042,-0.0526 -0.004,-0.0598 -0.0133,-0.92171 -0.0212,-1.91532 -0.0183,-2.307948 0.21127,-2.073874 -2.30031,-2.345701 -0.65193,-0.07056 -1.45203,-0.15141 -1.778,-0.179669 -0.79257,-0.06871 -0.80433,-0.08249 -0.80433,-0.942259 0,-1.01582 -0.33334,-1.321102 -0.90545,-0.829222 -0.23755,0.204243 -0.23755,0.204243 -0.26203,2.958681 -0.0245,2.75443 -0.0245,2.75443 -0.21167,2.81302 -1.26731,0.39665 -1.5423,1.98881 -0.40248,2.33031 1.03014,0.30863 1.86583,-0.47807 1.8668,-1.75738 0.002,-2.2748 -0.0741,-2.18396 1.75152,-2.09909 1.78397,0.0829 1.67321,-0.0494 1.61216,1.92682 -0.0504,1.63125 -0.0429,1.67484 0.3864,2.25458 0.54003,0.72924 1.76042,1.00959 2.64525,0.60767 z m -13.48316,-0.83436 c 1.31428,-0.58458 1.56528,-1.21136 1.61109,-4.023 0.0351,-2.156927 0.009,-2.325591 -0.2738,-1.771131 -0.091,0.178402 -0.30002,0.426981 -0.46445,0.552401 -0.29897,0.22804 -0.29897,0.22804 -0.32308,1.0938 -0.0241,0.86577 -0.0241,0.86577 -0.4051,0.88657 -1.10971,0.0606 -1.77656,0.30145 -2.33492,0.84332 -1.57624,1.52968 0.079,3.3571 2.19026,2.41804 z m 3.58591,-5.19656 c 1.2806,-0.394342 1.34533,-0.511037 1.25755,-2.267036 -0.0782,-1.563339 -0.16781,-1.685869 -1.18513,-1.61964 -1.30964,0.08526 -1.73567,0.623552 -1.73567,2.193024 0,1.917732 0.21723,2.138932 1.66325,1.693652 z m 26.74683,-2.763761 c 6.39395,-1.684828 11.46792,-5.813225 11.46792,-9.330784 0,-0.588776 -0.21786,-0.624464 -1.79782,-0.294512 -2.29131,0.478504 -2.56929,0.631494 -4.49566,2.47421 -2.36337,2.260748 -2.67364,2.429549 -5.39453,2.934843 -4.12977,0.766936 -6.73901,2.678743 -5.63678,4.130101 0.4054,0.533806 3.9596,0.586081 5.85687,0.08614 z M 88.971587,96.58888 c 0.975712,-0.186685 1.871235,-0.732293 2.475993,-1.508525 0.278363,-0.357292 0.327064,-0.385393 0.593079,-0.342225 0.324083,0.05259 0.669521,-0.256214 1.250716,-1.118079 1.380849,-2.047682 0.32827,-4.774492 -1.904678,-4.934259 -0.579931,-0.04149 -0.579931,-0.04149 -0.579931,1.742886 0,1.898281 -0.0066,1.926946 -0.413608,1.785077 -0.263725,-0.09194 -0.263725,-0.09194 -0.263725,-3.629286 0,-4.117977 0.0841,-3.801256 -0.933915,-3.51725 -0.394397,0.110029 -1.098085,0.30132 -1.563752,0.425091 -0.709156,0.188487 -1.53179,0.415837 -2.166937,0.598869 -0.09,0.02594 -0.215458,-0.0885 -0.376717,-0.343621 -0.132979,-0.210378 -0.272282,-0.382507 -0.309563,-0.382507 -0.03728,0 -0.09636,-1.69e-4 -0.131283,-3.38e-4 -0.03493,-1.7e-4 -0.08255,0.638002 -0.105833,1.418166 -0.04233,1.418481 -0.04233,1.418481 -0.456892,1.444793 -0.414558,0.02631 -0.414558,0.02631 -0.381,-3.386667 0.0396,-4.027463 0.0892,-3.887326 -1.024775,-2.895481 -0.932946,0.830665 -3.060357,2.403527 -3.250946,2.403527 -0.02461,0 -0.19674,-0.223824 -0.382513,-0.497386 -0.632888,-0.931969 -0.769208,-0.822631 -0.769208,0.616964 0,2.003729 -0.03258,2.139873 -0.523347,2.18703 -1.312777,0.126141 -2.517559,2.63697 -1.853974,3.863777 0.242876,0.449017 1.646933,0.05929 2.300541,-0.638569 0.841503,-0.898475 0.936807,-1.207849 0.999591,-3.244845 0.04816,-1.562509 0.05984,-1.651698 0.220189,-1.681463 0.184325,-0.03421 2.265485,-1.488414 3.217635,-2.248306 0.541994,-0.432554 0.598654,-0.458874 0.666328,-0.309525 0.154926,0.341905 -0.01361,0.739343 -0.449084,1.059009 -0.655594,0.481248 -0.680216,0.770573 -0.04617,0.542573 0.496702,-0.178612 0.46363,-0.334785 0.46363,2.189323 0,2.233692 0,2.233692 -0.338824,2.716388 -0.829632,1.181916 -0.971395,3.302382 -0.22654,3.388557 1.599131,0.185008 2.802508,-1.942099 2.633027,-4.65418 -0.05187,-0.830096 -0.04363,-0.908457 0.103819,-0.987371 0.188454,-0.100857 3.615312,-1.01948 3.924518,-1.052028 0.211666,-0.02228 0.211666,-0.02228 0.233823,3.198853 0.02216,3.221133 0.02216,3.221133 -0.536527,3.316832 -3.012253,0.515976 -4.103727,4.049341 -1.389739,4.498915 0.652629,0.108108 0.596808,0.109172 1.296597,-0.02472 z m 36.091253,-0.439167 c 0.32134,-0.16867 0.79381,-0.432092 1.04993,-0.585382 0.25611,-0.153292 0.86571,-0.436272 1.35466,-0.628844 0.48895,-0.192573 1.74625,-0.764027 2.794,-1.269898 1.17551,-0.567554 2.55344,-1.151677 3.59834,-1.525383 3.85466,-1.378615 5.53891,-2.577235 6.35037,-4.519326 0.0843,-0.201791 0.28969,-0.412916 0.61958,-0.636943 1.73246,-1.176492 3.16571,-5.053528 2.48463,-6.721093 -0.38474,-0.942011 -2.1423,0.36509 -3.06554,2.279862 -0.30997,0.642848 -0.37579,0.719539 -0.9387,1.093765 -1.25176,0.832164 -2.55217,2.382635 -3.24893,3.873663 -0.4273,0.914391 -0.64552,1.054453 -2.44635,1.570147 -1.37879,0.39484 -1.37348,0.396729 -0.90838,-0.322866 1.54084,-2.38399 2.30982,-6.494611 1.27631,-6.822634 -1.73346,-0.550178 -5.52716,3.290851 -7.06744,7.155604 -0.75037,1.882778 -1.1856,4.360506 -0.93665,5.33226 0.17062,0.665967 0.15301,0.690308 -0.88826,1.228102 -0.79195,0.409028 -0.88348,0.48635 -0.80814,0.682692 0.0667,0.173932 0.12553,0.160095 0.78057,-0.183726 z M 110.99755,94.1607 c 0.18505,-0.05137 0.87085,-0.419155 1.524,-0.817292 0.65315,-0.398136 2.55915,-1.511148 4.23555,-2.473358 7.01761,-4.027925 6.36496,-3.480408 6.30973,-5.293332 -0.0357,-1.172527 0.0714,-1.081292 -3.43106,-2.921639 -1.44357,-0.758509 -3.04377,-1.616058 -3.556,-1.905663 -4.32119,-2.443102 -4.89257,-2.689536 -6.14913,-2.652073 -1.07218,0.03197 -0.67334,-0.148778 -4.64587,2.105422 -0.67522,0.383149 -1.81822,1.017847 -2.54,1.41044 -5.293579,2.87928 -5.192893,2.798327 -5.192893,4.17518 0,1.417955 0.0088,1.427216 2.737553,2.876839 3.8355,2.03758 9.03664,4.928819 9.51587,5.289735 0.39954,0.300909 0.677,0.348788 1.19225,0.205741 z M 86.245678,88.407485 c 0.463536,-0.236479 1.808363,-1.595692 1.692972,-1.711083 -0.05892,-0.05892 -0.151489,-0.04396 -0.290158,0.0469 -0.112001,0.07339 -0.341458,0.159283 -0.509908,0.190884 -0.507067,0.09513 -1.037512,0.491314 -1.322002,0.987401 -0.402607,0.702053 -0.275886,0.845547 0.429096,0.485893 z m -5.632724,-1.785152 c 0.878013,-0.532132 1.814178,-1.712116 1.559999,-1.966295 -0.308841,-0.308841 -1.869526,0.649559 -2.38796,1.466423 -0.544044,0.857214 -0.152096,1.093848 0.827961,0.499872 z"
         id="path5719" /><path
         style="display:inline;fill:#5eb0e3;stroke-width:0.0846667"
         d="m 111.63879,148.48889 c -0.0713,-0.0859 -0.0882,-0.2604 -0.0517,-0.53198 0.11916,-0.88633 0.15122,-3.75079 0.0434,-3.88067 -0.0862,-0.10386 -0.0802,-0.11645 0.0346,-0.0724 0.0764,0.0293 0.14092,0.11592 0.1433,0.19244 0.0194,0.62589 -0.0156,2.59649 -0.0593,3.33527 -0.0389,0.65734 -0.027,0.91017 0.0429,0.91017 0.0532,0 0.0967,-0.11205 0.0967,-0.24901 0,-0.13695 0.0308,-0.26806 0.0685,-0.29135 0.0377,-0.0233 0.0472,0.11423 0.0212,0.30561 -0.0517,0.37965 -0.17418,0.48133 -0.33967,0.28192 z m -1.20523,-0.69767 c 0.0611,-0.0245 0.13414,-0.0215 0.16228,0.007 0.0281,0.0281 -0.0219,0.0481 -0.11113,0.0445 -0.0986,-0.004 -0.11869,-0.0241 -0.0512,-0.0512 z m 0.60421,-0.063 c 0.11404,-0.0632 0.23519,-0.18562 0.26922,-0.27216 0.0568,-0.14447 0.0624,-0.14287 0.0678,0.0196 0.004,0.11089 -0.0745,0.21358 -0.20969,0.27517 -0.29466,0.13425 -0.38243,0.11869 -0.12735,-0.0226 z m -1.11221,-0.0217 c 0.0611,-0.0245 0.13414,-0.0215 0.16228,0.007 0.0281,0.0281 -0.0219,0.0481 -0.11113,0.0445 -0.0986,-0.004 -0.11869,-0.0241 -0.0511,-0.0512 z m 2.794,0 c 0.0611,-0.0245 0.13414,-0.0215 0.16228,0.007 0.0281,0.0281 -0.0219,0.0481 -0.11113,0.0445 -0.0986,-0.004 -0.11869,-0.0241 -0.0511,-0.0512 z m 0.508,-0.0847 c 0.0611,-0.0245 0.13414,-0.0215 0.16228,0.007 0.0281,0.0281 -0.0219,0.0481 -0.11113,0.0445 -0.0986,-0.004 -0.11869,-0.0241 -0.0512,-0.0512 z m -4.73187,-0.59833 c -0.20526,-0.23283 -0.20526,-0.23283 0.0276,-0.0276 0.12805,0.11289 0.23283,0.21766 0.23283,0.23283 0,0.0664 -0.0686,0.0124 -0.26041,-0.20526 z m 5.84841,0.0212 c 0.10937,-0.11642 0.2179,-0.21167 0.24118,-0.21167 0.0233,0 -0.0472,0.0953 -0.15651,0.21167 -0.10937,0.11641 -0.2179,0.21166 -0.24119,0.21166 -0.0233,0 0.0472,-0.0952 0.15652,-0.21166 z m -3.03463,-0.46567 c 0,-0.11642 0.0192,-0.16404 0.0427,-0.10583 0.0235,0.0582 0.0235,0.15346 0,0.21166 -0.0235,0.0582 -0.0427,0.0106 -0.0427,-0.10583 z m 0.63204,0.0169 c -0.12577,-0.2035 0.0438,-2.54697 0.19234,-2.6584 0.11398,-0.0855 0.11883,-0.0828 0.0301,0.0167 -0.12927,0.14498 -0.15306,2.15601 -0.0246,2.07659 0.0512,-0.0316 0.0536,0.0371 0.007,0.1855 -0.041,0.12965 -0.0897,0.291 -0.10811,0.35856 -0.0247,0.0907 -0.0499,0.0962 -0.0964,0.021 z m -0.72339,-0.48957 c 0.004,-0.0986 0.0241,-0.11869 0.0512,-0.0512 0.0245,0.0611 0.0214,0.13414 -0.007,0.16228 -0.0281,0.0281 -0.0482,-0.0219 -0.0445,-0.11113 z m 25.81789,-0.40657 c -0.0548,-0.0548 -0.0859,-1.15242 -0.0859,-3.03231 0,-2.9464 0,-2.9464 -0.91068,-2.9464 -1.96011,0 -5.35465,-0.5606 -5.35465,-0.88431 0,-0.19724 0.15367,-0.19202 1.37003,0.0464 1.50916,0.29588 2.62053,0.41454 3.88262,0.41454 1.01268,0 1.01268,0 1.01268,-1.09031 0,-1.32151 0.002,-1.32393 0.79753,-1.19678 1.79964,0.2875 3.04515,1.63019 3.47304,3.74402 0.18139,0.89612 0.18654,3.423 0.007,3.67863 -0.36475,0.52076 -3.87684,1.58179 -4.19214,1.26648 z m -0.21867,-6.13873 c 0.0256,-0.0414 -0.41981,-0.0997 -0.98983,-0.12946 -1.58453,-0.0827 -2.71809,-0.21361 -3.78808,-0.43737 -1.0815,-0.22617 -1.18533,-0.23753 -1.18533,-0.12969 0,0.0833 0.0118,0.0864 1.29305,0.34244 1.66787,0.33332 4.54806,0.55169 4.67019,0.35408 z m -49.100907,5.19865 c -0.2794,-0.068 -0.688975,-0.14893 -0.910167,-0.17991 -0.621717,-0.0871 -0.273569,-0.58783 0.9525,-1.37008 1.371587,-0.8751 1.62525,-1.07446 1.998013,-1.57035 0.942101,-1.25327 1.165057,-2.03281 1.311858,-4.58677 0.113575,-1.97593 0.163117,-2.15752 0.588644,-2.15752 0.528818,0 0.817905,1.15239 0.446719,1.78076 -0.142099,0.24056 -0.142099,0.24056 0.462518,1.15607 0.89247,1.35137 1.019052,1.9185 0.762339,3.41553 -0.08123,0.47371 -0.08069,0.63323 0.0026,0.76659 0.191232,0.30622 -1.204077,1.9881 -1.98142,2.38838 -0.740898,0.38152 -2.730108,0.57711 -3.633607,0.3573 z m 2.82137,-0.21342 c 1.149464,-0.27557 2.869093,-1.90552 2.660755,-2.522 -0.05019,-0.14852 -0.0401,-0.43695 0.02874,-0.82154 0.25931,-1.44862 0.118116,-2.06232 -0.769403,-3.34415 -0.567641,-0.81983 -0.633905,-1.02574 -0.420771,-1.30753 0.164366,-0.21732 0.164299,-1.05321 -8.5e-5,-1.28793 -0.369625,-0.52771 -0.820289,-0.19832 -0.805336,0.58863 0.07314,3.84925 -0.739039,5.79978 -2.990837,7.18281 -1.295036,0.79539 -1.928446,1.4264 -1.434583,1.42912 0.128058,8.5e-4 0.404283,0.0553 0.613833,0.12134 0.595273,0.18756 2.259976,0.16688 3.117704,-0.0388 z m 22.324627,-0.33788 c 0.0843,-0.0931 0.1723,-0.16933 0.19558,-0.16933 0.0233,0 -0.0266,0.0762 -0.11091,0.16933 -0.0843,0.0931 -0.1723,0.16934 -0.19558,0.16934 -0.0233,0 0.0266,-0.0762 0.11091,-0.16934 z m 2.76504,-0.0847 c 0,-0.11642 0.0192,-0.16404 0.0427,-0.10584 0.0235,0.0582 0.0235,0.15346 0,0.21167 -0.0235,0.0582 -0.0427,0.0106 -0.0427,-0.10583 z m -8.38869,-0.0494 c 0.004,-0.0986 0.0241,-0.11869 0.0512,-0.0512 0.0245,0.0611 0.0215,0.13414 -0.007,0.16228 -0.0281,0.0281 -0.0481,-0.0219 -0.0445,-0.11113 z m 2.573,-0.64911 c -0.50535,-0.52917 -0.50535,-0.52917 0.0238,-0.0238 0.49155,0.46943 0.56791,0.55298 0.50535,0.55298 -0.0131,0 -0.25123,-0.23812 -0.52917,-0.52916 z m 1.35199,0.254 c -0.24867,-0.27517 -0.24867,-0.27517 0.0265,-0.0265 0.25649,0.2318 0.31408,0.30165 0.24867,0.30165 -0.0146,0 -0.1384,-0.12382 -0.27517,-0.27516 z m -25.870304,-0.60373 c -2.199254,-0.7859 -1.742997,-2.94453 0.626896,-2.96595 1.020946,-0.009 0.988774,0.0327 0.990441,-1.29216 0.0024,-1.89962 1.068194,-2.31788 2.386117,-0.93641 0.561057,0.58812 0.895434,0.35412 1.121191,-0.78459 0.178103,-0.89833 0.348246,-0.61753 0.333448,0.55034 -0.04533,3.57779 -2.845103,6.36253 -5.458093,5.42877 z m 1.543577,-0.0519 c 1.796274,-0.33141 3.367411,-2.00845 3.70887,-3.95889 0.241188,-1.37768 0.183035,-2.88917 -0.068,-1.76742 -0.245571,1.09733 -0.601647,1.27165 -1.269058,0.62129 -1.330683,-1.29669 -2.212089,-0.87366 -2.212089,1.06168 0,1.28302 0.02789,1.24857 -1.011767,1.24964 -1.33556,0.001 -1.951872,0.38813 -1.95125,1.22451 8.64e-4,1.16205 1.2426,1.85713 2.803294,1.56919 z m 27.907807,-0.0957 c 0.0574,-0.0579 0.12575,-0.0839 0.15182,-0.0578 0.0261,0.0261 -0.0209,0.0734 -0.10442,0.1052 -0.12067,0.046 -0.13039,0.0362 -0.0474,-0.0474 z m -5.66088,-0.13766 c -0.10532,-0.13429 -0.10232,-0.13728 0.032,-0.032 0.14104,0.11061 0.18589,0.18013 0.1162,0.18013 -0.0176,0 -0.0842,-0.0667 -0.14816,-0.14816 z m 1.45681,-0.40922 c 0.004,-0.0986 0.0241,-0.1187 0.0512,-0.0512 0.0245,0.0611 0.0215,0.13415 -0.007,0.16228 -0.0281,0.0281 -0.0482,-0.0219 -0.0445,-0.11112 z m -2.90122,-0.26245 c 0.0611,-0.0245 0.13414,-0.0215 0.16228,0.007 0.0281,0.0281 -0.0219,0.0482 -0.11113,0.0445 -0.0986,-0.004 -0.11869,-0.0241 -0.0511,-0.0512 z m 5.36324,-0.19617 c 0,-0.11641 0.0192,-0.16404 0.0427,-0.10583 0.0235,0.0582 0.0235,0.15346 0,0.21167 -0.0235,0.0582 -0.0427,0.0106 -0.0427,-0.10584 z m 31.14397,-0.032 c 0,-0.0176 0.0667,-0.0842 0.14816,-0.14816 0.13429,-0.10531 0.13728,-0.10232 0.032,0.032 -0.11061,0.14103 -0.18013,0.18588 -0.18013,0.11619 z M 110.47949,141.118 c -2.6e-4,-0.4191 0.014,-0.60123 0.0318,-0.40472 0.0178,0.1965 0.018,0.5394 5.1e-4,0.762 -0.0175,0.22259 -0.032,0.0618 -0.0323,-0.35728 z m 1.61693,0.25673 c -0.0312,-0.20805 -0.10974,-0.42227 -0.17452,-0.47603 -0.0648,-0.0538 -0.1178,-0.13703 -0.1178,-0.18502 0,-0.19692 0.32506,0.30526 0.37708,0.58254 0.0494,0.26313 0.0729,0.28615 0.19212,0.18783 0.12152,-0.10022 0.12514,-0.0919 0.0344,0.0784 -0.15351,0.28809 -0.24847,0.2308 -0.31123,-0.18777 z m -1.54895,-1.65373 c 0,-0.11642 0.0192,-0.16404 0.0427,-0.10583 0.0235,0.0582 0.0235,0.15346 0,0.21166 -0.0235,0.0582 -0.0427,0.0106 -0.0427,-0.10583 z m 0.74222,-0.3175 c -0.20526,-0.23283 -0.20526,-0.23283 0.0276,-0.0276 0.12805,0.11289 0.23283,0.21766 0.23283,0.23283 0,0.0664 -0.0686,0.0124 -0.26041,-0.20526 z m -0.4328,-0.24833 c 0.0611,-0.0245 0.13415,-0.0215 0.16228,0.007 0.0281,0.0281 -0.0219,0.0481 -0.11113,0.0445 -0.0986,-0.004 -0.11869,-0.0241 -0.0511,-0.0512 z m 32.95789,-0.16089 c 0.004,-0.0986 0.0241,-0.11869 0.0512,-0.0511 0.0245,0.0611 0.0215,0.13414 -0.007,0.16228 -0.0281,0.0281 -0.0481,-0.0219 -0.0445,-0.11113 z m 0.1114,-1.77095 c 0,-0.65193 0.0134,-0.90744 0.0295,-0.56779 0.0161,0.33964 0.016,0.87304 0,1.18534 -0.0163,0.31228 -0.0294,0.0344 -0.0293,-0.61755 z m 2.34393,0.16229 c 0.004,-0.0986 0.0241,-0.1187 0.0512,-0.0512 0.0245,0.0611 0.0215,0.13415 -0.007,0.16228 -0.0281,0.0281 -0.0481,-0.0219 -0.0445,-0.11112 z m -19.15722,-0.008 c 0.0611,-0.0245 0.13415,-0.0215 0.16228,0.007 0.0281,0.0281 -0.0219,0.0481 -0.11113,0.0445 -0.0986,-0.004 -0.11869,-0.0241 -0.0512,-0.0512 z m -50.031,-0.24919 c -0.124583,-0.15012 -0.138245,-0.62911 -0.0342,-1.19921 0.056,-0.30685 0.03242,-0.42547 -0.151923,-0.76416 -0.138413,-0.25431 -0.263971,-0.69427 -0.343347,-1.2031 -0.54755,-3.51 -0.520479,-3.2524 -0.365118,-3.47421 0.251618,-0.35923 2.356003,-2.45478 2.807324,-2.79553 0.569731,-0.43015 1.000885,-0.57377 2.030668,-0.67642 0.467028,-0.0466 1.053216,-0.14277 1.302639,-0.21381 1.002834,-0.28562 1.147537,1.51362 0.219578,2.73024 -0.287684,0.37717 -0.273576,0.40574 0.304413,0.61649 1.613713,0.58839 1.685471,2.05254 0.122858,2.5068 -0.693867,0.20172 -0.685109,0.18145 -0.74591,1.72586 -0.05775,1.46676 -0.10049,1.62941 -0.47974,1.82553 -0.752623,0.3892 -1.77319,-0.20917 -2.368643,-1.38876 -0.312702,-0.61946 -0.385352,-0.60595 -0.463662,0.0862 -0.05318,0.47006 -0.09844,0.56287 -0.465422,0.95439 -0.284777,0.30382 -0.424852,0.53464 -0.467756,0.7708 -0.114282,0.62906 -0.579916,0.88666 -0.901755,0.49887 z m 0.683231,-0.11075 c 0.04821,-0.0901 0.08765,-0.26111 0.08765,-0.3801 0,-0.1407 0.147336,-0.37903 0.421413,-0.68168 0.440429,-0.48633 0.493864,-0.60875 0.582734,-1.33502 0.07649,-0.62514 0.25242,-0.62438 0.540082,0.002 0.458431,0.99873 1.116594,1.5496 1.858292,1.55535 0.733143,0.006 0.780022,-0.0925 0.833055,-1.74443 0.05044,-1.57133 0.0872,-1.66637 0.709227,-1.83386 1.597477,-0.43015 1.638249,-1.60769 0.08049,-2.3247 -0.731008,-0.33647 -0.763325,-0.38011 -0.507764,-0.68577 0.8653,-1.03495 0.897096,-2.99264 0.04372,-2.69154 -0.178116,0.0628 -0.715287,0.15672 -1.193713,0.20863 -1.767717,0.19177 -3.189697,1.19112 -4.964989,3.48931 -0.09447,0.12229 -0.08453,0.31294 0.06178,1.18533 0.0959,0.57178 0.235929,1.45605 0.311176,1.96504 0.09637,0.65185 0.209654,1.06974 0.383204,1.41353 0.246391,0.48811 0.246391,0.48811 0.103676,1.03224 -0.202507,0.7721 0.32201,1.43815 0.649971,0.82535 z m 68.602619,-0.25954 c 0,-0.16299 0.0174,-0.22966 0.0387,-0.14817 0.0213,0.0815 0.0213,0.21484 0,0.29633 -0.0213,0.0815 -0.0387,0.0148 -0.0387,-0.14816 z m -20.41094,-0.33867 c 0,-0.11642 0.0192,-0.16404 0.0427,-0.10583 0.0235,0.0582 0.0235,0.15346 0,0.21166 -0.0235,0.0582 -0.0427,0.0106 -0.0427,-0.10583 z m 20.49247,-0.635 c 0.002,-0.1397 0.0207,-0.1866 0.0422,-0.10422 0.0215,0.0824 0.0201,0.19668 -0.003,0.254 -0.0232,0.0573 -0.0408,-0.0101 -0.039,-0.14978 z m -2.74924,-1.09867 c -0.20335,-1.25645 -0.0358,-1.18617 -1.66993,-0.70024 -1.52287,0.45282 -3.984,0.68809 -4.04523,0.38669 -0.0318,-0.15634 -0.055,-0.1518 1.67456,-0.32633 0.95665,-0.0966 2.42531,-0.43037 3.25967,-0.74093 0.42807,-0.15934 0.45555,-0.20698 0.35223,-0.61085 -0.0338,-0.13203 -0.005,-0.10318 0.0776,0.0767 0.28624,0.62647 -1.53119,1.21046 -4.65121,1.49455 -0.31939,0.0291 -0.54799,0.083 -0.508,0.11989 0.24188,0.22294 2.81728,-0.17542 4.38895,-0.67887 0.71642,-0.22948 0.84376,-0.24887 0.94826,-0.14439 0.12568,0.12569 0.39335,1.56391 0.34894,1.87493 -0.014,0.098 -0.0931,-0.24 -0.17584,-0.75114 z m 2.73942,0.66829 c 0.004,-0.0986 0.0241,-0.1187 0.0512,-0.0512 0.0245,0.0611 0.0215,0.13415 -0.007,0.16228 -0.0281,0.0281 -0.0482,-0.0219 -0.0445,-0.11112 z m -35.306,-0.254 c 0.004,-0.0986 0.0241,-0.1187 0.0512,-0.0512 0.0245,0.0611 0.0215,0.13415 -0.007,0.16228 -0.0281,0.0281 -0.0481,-0.0219 -0.0445,-0.11112 z m 32.975,0.0282 c -0.1064,-0.34124 -0.31702,-1.32886 -0.32881,-1.5418 -0.0131,-0.23606 0.0477,-0.28572 1.04446,-0.8535 0.58208,-0.33156 1.05319,-0.63788 1.04692,-0.68069 -0.006,-0.0428 -0.0384,-0.17309 -0.0713,-0.28951 -0.0599,-0.21166 -0.0599,-0.21166 0.0808,-0.0196 0.23482,0.32047 0.12695,0.44252 -0.92608,1.04791 -1.23893,0.71225 -1.17531,0.64623 -1.0272,1.066 0.0673,0.1908 0.14905,0.53105 0.18165,0.75612 0.0326,0.22508 0.0972,0.45686 0.14361,0.51506 0.0576,0.0723 0.0534,0.10584 -0.0133,0.10584 -0.0537,0 -0.11255,-0.0476 -0.1307,-0.10584 z m 2.14418,-0.127 c -0.10531,-0.13429 -0.10232,-0.13727 0.032,-0.032 0.14103,0.11061 0.18588,0.18014 0.1162,0.18014 -0.0176,0 -0.0843,-0.0667 -0.14817,-0.14817 z m -0.93641,-0.16366 c 0.0611,-0.0245 0.13415,-0.0215 0.16228,0.007 0.0281,0.0281 -0.0219,0.0482 -0.11112,0.0445 -0.0986,-0.004 -0.11869,-0.0241 -0.0512,-0.0512 z m 0.41805,0.002 c 0.0582,-0.0235 0.15345,-0.0235 0.21166,0 0.0582,0.0235 0.0106,0.0427 -0.10583,0.0427 -0.11642,0 -0.16404,-0.0192 -0.10583,-0.0427 z m -19.77747,-0.36727 c 0,-0.11642 0.0192,-0.16404 0.0427,-0.10584 0.0235,0.0582 0.0235,0.15346 0,0.21167 -0.0235,0.0582 -0.0427,0.0106 -0.0427,-0.10583 z M 86.121877,134.3306 c -0.03104,-0.031 -0.05644,-0.60436 -0.05644,-1.27403 0,-1.5553 0.06078,-1.62128 2.243666,-2.43571 1.511492,-0.56394 1.922959,-0.77905 2.294915,-1.19978 0.494967,-0.55988 0.541419,-0.4817 0.541419,0.91117 0,1.86732 -0.623678,2.53541 -2.986123,3.19877 -0.912727,0.25629 -1.304803,0.42123 -1.660795,0.69867 -0.217752,0.1697 -0.288813,0.18874 -0.376638,0.10091 z m 0.594096,-0.36564 c 0.224286,-0.13901 0.807843,-0.36485 1.296793,-0.50187 1.429895,-0.40067 2.153341,-0.80046 2.761656,-1.52611 0.240409,-0.28679 0.244415,-0.30897 0.271423,-1.50284 0.03087,-1.36458 0.04227,-1.34241 -0.437131,-0.84967 -0.359818,0.36983 -0.827745,0.60004 -2.595948,1.27719 -1.790204,0.68558 -1.862667,0.77518 -1.862667,2.30324 0,1.16952 -0.0092,1.15651 0.565874,0.80006 z m 44.222797,-1.03469 c 0,-0.0947 -0.11695,-0.14158 -0.42812,-0.17148 -0.49625,-0.0477 -0.78686,-0.28413 -1.39753,-1.13703 -0.70296,-0.98179 -1.38074,-1.39744 -1.7511,-1.07385 -0.58223,0.5087 1.00937,-1.52546 1.757,-2.24556 2.07198,-1.99566 4.18686,-2.9635 5.06625,-2.31847 0.43286,0.3175 0.43286,0.3175 1.93506,0.29578 1.53177,-0.0222 2.15761,0.1493 0.97087,0.26598 -2.73726,0.26913 -3.18965,0.45437 -4.21132,1.72437 -0.76524,0.95125 -1.05182,1.61231 -1.60579,3.70404 -0.26801,1.012 -0.33532,1.20394 -0.33532,0.95622 z m 4.99533,-6.41722 c 0.15804,-0.10213 -0.52776,-0.10213 -0.84667,0 -0.16341,0.0523 -0.10552,0.0694 0.254,0.0749 0.25612,0.004 0.52282,-0.0298 0.59267,-0.0749 z m 0.84667,-0.0826 c 0,-0.0474 -0.11706,-0.0603 -0.27517,-0.0302 -0.38585,0.0735 -0.39815,0.11272 -0.0353,0.11272 0.17075,0 0.31045,-0.0372 0.31045,-0.0826 z m 7.48495,2.34738 c -0.16129,-0.1905 -0.16129,-0.1905 0.0292,-0.0292 0.17902,0.15158 0.22904,0.21971 0.16129,0.21971 -0.0161,0 -0.10179,-0.0857 -0.1905,-0.1905 z m -0.88736,-0.889 c -0.20526,-0.23283 -0.20526,-0.23283 0.0276,-0.0276 0.12806,0.11289 0.23284,0.21767 0.23284,0.23283 0,0.0664 -0.0686,0.0124 -0.26041,-0.20526 z m -3.47573,-0.16933 c -0.10531,-0.13429 -0.10232,-0.13728 0.032,-0.032 0.0815,0.0639 0.14817,0.13059 0.14817,0.14817 0,0.0697 -0.0695,0.0248 -0.18014,-0.1162 z m 3.048,-0.16933 c -0.10531,-0.13429 -0.10232,-0.13728 0.032,-0.032 0.0815,0.0639 0.14817,0.13059 0.14817,0.14817 0,0.0697 -0.0695,0.0248 -0.18014,-0.1162 z m -22.60995,-1.21311 c -0.0673,-1.19044 -1.17058,-1.16807 -1.17058,0.0237 0,0.95463 -1.19046,-0.11595 -1.36637,-1.22878 -0.29344,-1.85629 1.5156,-3.64037 4.05167,-3.99576 3.51801,-0.493 5.40048,-7.06925 2.02359,-7.06925 -0.22173,0 -0.30516,0.89785 -0.30588,3.292 -5.1e-4,1.58309 -1.02483,2.45623 -1.6065,1.36936 -0.21818,-0.40766 -0.10652,-8.29037 0.12064,-8.51754 0.8368,-0.8368 3.63128,0.83162 4.53294,2.70634 1.42005,2.95257 0.40937,7.67935 -1.96864,9.20694 -0.2659,0.17081 -0.41862,0.33482 -0.44917,0.48236 -0.39058,1.8865 -1.53754,3.39314 -3.09627,4.06722 -0.76059,0.32893 -0.72699,0.34371 -0.76543,-0.33662 z m 20.75809,0.0489 c -0.11642,-0.0665 -0.17133,-0.12235 -0.12202,-0.124 0.0493,-0.002 0.1636,0.0529 0.254,0.12131 0.20904,0.15811 0.14228,0.15947 -0.13198,0.003 z m -0.42334,-0.21167 c -0.0763,-0.0493 -0.0867,-0.0826 -0.0262,-0.0834 0.0555,-6.7e-4 0.12438,0.0368 0.15316,0.0834 0.065,0.10512 0.0357,0.10512 -0.127,0 z m -46.868353,-3.302 c 0,-1.23401 0.01184,-1.73884 0.0263,-1.12183 0.01447,0.61701 0.01447,1.62666 0,2.24367 -0.01447,0.61701 -0.0263,0.11218 -0.0263,-1.12184 z m -12.207811,-2.09036 c 0.08149,-0.0213 0.214842,-0.0213 0.296333,0 0.08149,0.0213 0.01482,0.0387 -0.148166,0.0387 -0.162984,0 -0.229659,-0.0174 -0.148167,-0.0387 z m 56.661604,-0.30147 c -0.0661,-0.18131 -0.0866,-4.46148 -0.0211,-4.39581 0.0341,0.0342 0.0722,1.02296 0.0847,2.1973 0.0143,1.3519 0.0537,2.13518 0.10733,2.13518 0.0536,0 0.093,-0.78328 0.10732,-2.13518 0.0125,-1.17434 0.0506,-2.16314 0.0847,-2.19733 0.0651,-0.0652 0.0438,4.21237 -0.0218,4.39584 -0.0208,0.0582 -0.0974,0.10583 -0.17018,0.10583 -0.0728,0 -0.14968,-0.0476 -0.1709,-0.10583 z m -57.833815,-0.16933 c -0.161289,-0.1905 -0.161289,-0.1905 0.02921,-0.0292 0.179023,0.15157 0.229044,0.21971 0.161289,0.21971 -0.01607,0 -0.101791,-0.0857 -0.1905,-0.1905 z m 3.606378,-0.344 c 0,-0.0146 0.123825,-0.13839 0.275166,-0.27516 0.275167,-0.24868 0.275167,-0.24868 0.02649,0.0265 -0.231798,0.2565 -0.301659,0.31409 -0.301659,0.24867 z m 9.776902,-7.76284 c 0,-3.51578 0.01046,-4.95405 0.02323,-3.19616 0.01278,1.75789 0.01278,4.63444 0,6.39233 -0.01278,1.75789 -0.02323,0.31962 -0.02323,-3.19617 z m -13.659015,5.90538 c -0.194224,-0.36758 -0.09403,-10.25587 0.1043,-10.29406 0.218353,-0.042 0.303654,0.12563 0.305183,0.59985 0.0016,0.50322 -0.09059,0.53176 1.080111,-0.33425 3.271869,-2.42033 3.574919,-2.71147 3.576556,-3.43607 0.0013,-0.58605 0.1362,-0.80648 0.35785,-0.58482 0.06512,0.0651 0.0393,0.0776 -0.09036,0.0437 -0.173854,-0.0455 -0.181529,-0.0202 -0.181529,0.59706 0,0.69747 -0.434026,1.10996 -3.711927,3.52768 -1.108267,0.81744 -1.113494,0.81864 -1.11537,0.25726 -0.0014,-0.4281 -0.09844,-0.65273 -0.243238,-0.56324 -0.130821,0.0808 -0.133343,9.89205 -0.0026,10.13633 0.05034,0.0941 0.0758,0.18675 0.05657,0.20598 -0.01922,0.0192 -0.08022,-0.0507 -0.135544,-0.15542 z m 5.152113,-0.2666 c 0,-0.0312 0.05442,-0.14112 0.120944,-0.24425 0.10113,-0.1568 0.128302,-1.26076 0.165856,-6.73866 0.0247,-3.60312 0.07036,-6.57492 0.101456,-6.604 0.162547,-0.15197 -0.06305,13.2302 -0.226534,13.43804 -0.08895,0.11308 -0.161722,0.18007 -0.161722,0.14887 z m -4.890471,-3.49561 c 0.02214,-3.36017 0.02214,-3.36017 0.995804,-4.04549 0.535517,-0.37693 1.59889,-1.14933 2.363052,-1.71645 0.764162,-0.56713 1.421387,-1.01136 1.4605,-0.98718 0.112225,0.0694 0.09047,8.98666 -0.02209,9.05623 -0.05126,0.0317 -0.175088,-0.0313 -0.275167,-0.14002 -0.181342,-0.19697 -0.181348,-0.19713 -0.0019,-0.049 0.164058,0.13548 0.184726,0.13647 0.232833,0.0111 0.08654,-0.22552 0.06182,-8.75973 -0.02537,-8.75973 -0.043,0 -0.18587,0.0896 -0.3175,0.19913 -0.290429,0.24165 -3.204042,2.36263 -3.79533,2.76284 -0.232833,0.15759 -0.451325,0.32714 -0.485537,0.37678 -0.07786,0.11297 -0.08569,6.48258 -0.008,6.48258 0.03126,0 0.136033,-0.0664 0.232834,-0.14756 0.127734,-0.10709 0.119711,-0.0839 -0.02926,0.0847 -0.112893,0.12773 -0.237154,0.23223 -0.276138,0.23223 -0.03898,0 -0.06092,-1.51208 -0.04874,-3.36017 z m 0.995804,2.39687 c 0,-0.0176 0.06668,-0.0843 0.148167,-0.14817 0.134286,-0.10531 0.137281,-0.10232 0.03197,0.032 -0.110606,0.14103 -0.180133,0.18588 -0.180133,0.1162 z m 1.338792,-0.70321 c 0.06112,-0.0245 0.134144,-0.0215 0.162278,0.007 0.02813,0.0281 -0.02187,0.0482 -0.111125,0.0445 -0.09863,-0.004 -0.118694,-0.0241 -0.05115,-0.0511 z m 54.864002,-0.0847 c 0.0611,-0.0245 0.13414,-0.0214 0.16228,0.007 0.0281,0.0281 -0.0219,0.0481 -0.11113,0.0445 -0.0986,-0.004 -0.11869,-0.0241 -0.0512,-0.0512 z m -1.13245,-0.64067 c -0.24868,-0.27516 -0.24868,-0.27516 0.0265,-0.0265 0.2565,0.2318 0.31409,0.30166 0.24867,0.30166 -0.0146,0 -0.13839,-0.12382 -0.27516,-0.27517 z m 3.60366,-0.2648 c 0,-0.0176 0.0667,-0.0842 0.14816,-0.14816 0.13429,-0.10532 0.13728,-0.10232 0.032,0.032 -0.11061,0.14104 -0.18013,0.18589 -0.18013,0.1162 z m 0.33866,-0.42333 c 0,-0.0176 0.0667,-0.0843 0.14817,-0.14817 0.13429,-0.10531 0.13728,-0.10232 0.032,0.032 -0.11061,0.14103 -0.18014,0.18589 -0.18014,0.1162 z m 0.33867,-0.42333 c 0,-0.0176 0.0667,-0.0843 0.14817,-0.14817 0.13429,-0.10531 0.13727,-0.10232 0.032,0.032 -0.11061,0.14103 -0.18014,0.18588 -0.18014,0.1162 z M 111.13345,113.933 c 0.004,-0.0986 0.0241,-0.1187 0.0512,-0.0512 0.0245,0.0611 0.0215,0.13415 -0.007,0.16228 -0.0281,0.0281 -0.0481,-0.0219 -0.0445,-0.11112 z m 29.96532,-0.15192 c 0,-0.0176 0.0667,-0.0842 0.14816,-0.14816 0.13429,-0.10532 0.13728,-0.10232 0.032,0.032 -0.11061,0.14104 -0.18013,0.18589 -0.18013,0.1162 z m -4.78766,-0.4972 c -0.33468,-0.35983 -0.33468,-0.35983 0.0252,-0.0251 0.33464,0.31126 0.39873,0.38499 0.33467,0.38499 -0.0138,0 -0.17575,-0.16193 -0.35983,-0.35984 z m 2.96142,0.18096 c -0.0334,-0.0541 0.20763,-0.35168 0.56574,-0.6985 0.62395,-0.60429 0.62395,-0.60429 0.0429,9.2e-4 -0.325,0.33851 -0.55564,0.64631 -0.52339,0.6985 0.0317,0.0513 0.0386,0.0933 0.0153,0.0933 -0.0233,0 -0.0685,-0.0424 -0.10056,-0.0942 z m -2.58099,-0.30796 c -0.29177,-0.3175 -0.29177,-0.3175 0.0257,-0.0257 0.17462,0.16048 0.3175,0.30335 0.3175,0.3175 0,0.0647 -0.0717,0.004 -0.34323,-0.29178 z m 3.17956,-0.10583 c 0.22933,-0.23283 0.43602,-0.42333 0.4593,-0.42333 0.0233,0 -0.14531,0.1905 -0.37463,0.42333 -0.22933,0.23283 -0.43602,0.42333 -0.4593,0.42333 -0.0233,0 0.1453,-0.1905 0.37463,-0.42333 z m -3.6938,-0.48683 c -0.10531,-0.13429 -0.10232,-0.13728 0.032,-0.032 0.0815,0.0639 0.14816,0.13059 0.14816,0.14817 0,0.0697 -0.0695,0.0248 -0.18013,-0.1162 z m 4.56022,-0.20101 c 0.0574,-0.0579 0.12575,-0.0839 0.15182,-0.0578 0.0261,0.0261 -0.0209,0.0734 -0.10442,0.10521 -0.12067,0.0459 -0.13039,0.0362 -0.0474,-0.0474 z m -4.93846,-0.26466 c -0.16129,-0.1905 -0.16129,-0.1905 0.0292,-0.0292 0.17902,0.15157 0.22904,0.21971 0.16129,0.21971 -0.0161,0 -0.1018,-0.0857 -0.1905,-0.1905 z m 5.36321,0.13075 c 0.10477,-0.0202 0.27622,-0.0202 0.381,0 0.10477,0.0202 0.019,0.0367 -0.1905,0.0367 -0.20955,0 -0.29528,-0.0165 -0.1905,-0.0367 z m -5.83164,-0.68108 c -0.10531,-0.13429 -0.10232,-0.13728 0.032,-0.032 0.0815,0.0639 0.14817,0.13059 0.14817,0.14817 0,0.0697 -0.0695,0.0248 -0.18014,-0.1162 z m -28.03503,-0.44976 c -0.36089,-0.1845 -0.65617,-0.35447 -0.65617,-0.37771 0,-0.0232 0.3048,0.11099 0.67734,0.2983 0.37253,0.18731 0.67733,0.35918 0.67733,0.38195 0,0.057 0.0317,0.0708 -0.6985,-0.30254 z m -26.849369,-0.64683 c -0.192591,-0.19259 -0.04557,-0.95369 0.221702,-1.1477 1.165417,-0.84598 2.463957,-1.82605 3.315763,-2.50257 1.219955,-0.96891 1.268928,-0.98165 1.302624,-0.33888 0.03046,0.581 0.104866,0.50283 -1.983722,2.08395 -2.019478,1.5288 -2.747307,2.01426 -2.856367,1.9052 z m 0.818192,-0.5247 c 2.406757,-1.63651 3.911408,-2.92738 3.937601,-3.37814 0.03572,-0.61476 0.0319,-0.613 -1.856155,0.85249 -0.913677,0.70919 -1.923327,1.47994 -2.243667,1.71277 -1.072658,0.77964 -0.919271,1.54826 0.162221,0.81288 z m 54.243447,-0.15671 c -0.46277,-0.48684 -0.46277,-0.48684 0.0241,-0.0241 0.26776,0.25452 0.48684,0.4736 0.48684,0.48683 0,0.0628 -0.081,-0.0105 -0.5109,-0.46277 z m 0.53094,0.25313 c -0.0989,-0.21088 -0.0965,-0.21772 0.031,-0.0902 0.0759,0.0759 0.12402,0.17855 0.10697,0.22817 -0.0171,0.0496 -0.0791,-0.0125 -0.13795,-0.13795 z m -31.56336,-0.40597 c -0.15782,-0.12644 -0.15678,-0.128 0.0262,-0.0393 0.10477,0.0508 0.1905,0.11002 0.1905,0.13167 0,0.0648 -0.0439,0.0461 -0.21665,-0.0923 z m 31.27851,-0.0165 c -0.10531,-0.13428 -0.10232,-0.13728 0.032,-0.032 0.0815,0.0639 0.14817,0.13058 0.14817,0.14816 0,0.0697 -0.0695,0.0248 -0.18014,-0.1162 z m -1.42185,-0.15522 c 0.004,-0.0986 0.0241,-0.11869 0.0512,-0.0512 0.0245,0.0611 0.0214,0.13414 -0.007,0.16228 -0.0281,0.0281 -0.0481,-0.0219 -0.0445,-0.11113 z m 7.89785,-0.96661 c 0,-0.44238 0.0143,-0.62336 0.0317,-0.40217 0.0174,0.2212 0.0174,0.58315 0,0.80434 -0.0174,0.22119 -0.0317,0.0402 -0.0317,-0.40217 z m -6.04857,-0.65617 c -0.0954,-0.12604 -0.0944,-0.13236 0.007,-0.0423 0.18351,0.16363 0.24057,0.12882 0.27757,-0.16933 0.0336,-0.27092 0.0344,-0.27027 0.0477,0.0423 0.0149,0.35039 -0.1364,0.42762 -0.33183,0.16933 z m -1.34128,-0.0705 c 0.004,-0.0986 0.0241,-0.11869 0.0512,-0.0512 0.0245,0.0611 0.0215,0.13414 -0.007,0.16227 -0.0281,0.0281 -0.0481,-0.0219 -0.0445,-0.11112 z m 1.524,-0.67733 c 0.004,-0.0986 0.0241,-0.1187 0.0512,-0.0512 0.0245,0.0611 0.0215,0.13415 -0.007,0.16228 -0.0281,0.0281 -0.0481,-0.0219 -0.0445,-0.11112 z m 5.67267,-0.33867 c 0.004,-0.0986 0.0241,-0.11869 0.0512,-0.0511 0.0245,0.0611 0.0214,0.13414 -0.007,0.16227 -0.0281,0.0281 -0.0482,-0.0219 -0.0445,-0.11112 z m -5.75733,-0.0847 c 0.004,-0.0986 0.0241,-0.11869 0.0512,-0.0512 0.0245,0.0611 0.0215,0.13414 -0.007,0.16228 -0.0281,0.0281 -0.0482,-0.0219 -0.0445,-0.11113 z m -18.71427,-0.48697 c -0.35124,-0.17963 -0.83209,-0.71257 -1.01189,-1.12153 -0.0434,-0.0988 -0.0568,-0.84688 -0.0303,-1.70217 0.0611,-1.97626 0.17181,-1.84388 -1.61216,-1.92682 -1.82558,-0.0849 -1.74978,-0.17571 -1.75152,2.09909 -9.7e-4,1.27931 -0.83666,2.06601 -1.8668,1.75738 -1.13982,-0.3415 -0.86483,-1.93366 0.40248,-2.33031 0.18719,-0.0586 0.18719,-0.0586 0.21167,-2.81302 0.0245,-2.754438 0.0245,-2.754438 0.26203,-2.958681 0.57211,-0.49188 0.90545,-0.186598 0.90545,0.829222 0,0.859774 0.0118,0.873549 0.80433,0.942259 0.32597,0.02826 1.12607,0.10911 1.778,0.179669 2.51158,0.271827 2.28203,0.03775 2.30031,2.345701 0.008,0.99361 0.0174,1.85551 0.0212,1.91532 0.005,0.0812 0.11427,0.0945 0.43042,0.0526 1.19047,-0.15792 2.33844,0.8568 2.02924,1.79369 -0.33202,1.00602 -1.801,1.48555 -2.87239,0.93764 z m -5.16755,-1.17814 c 0.59025,-0.40172 0.62967,-0.52157 0.67647,-2.05636 0.0567,-1.86037 -0.0872,-1.75221 2.14688,-1.61292 1.4996,0.0935 1.40912,-0.0374 1.40912,2.03945 0,1.04422 0.0311,1.651 0.0847,1.651 0.0466,0 0.0847,-0.0774 0.0847,-0.17205 0,-0.35126 0.25087,-0.76057 0.62991,-1.02774 0.38609,-0.27214 0.38609,-0.27214 0.38609,-2.20123 0,-2.417208 0.38584,-2.118517 -3.21733,-2.490635 -1.69021,-0.174556 -1.60867,-0.12142 -1.60867,-1.048259 0,-0.80709 -0.1426,-1.092394 -0.49076,-0.981891 -0.41562,0.131913 -0.42238,0.173888 -0.49716,3.089175 -0.0704,2.74503 -0.0704,2.74503 -0.44904,2.94506 -0.76969,0.40662 -1.05459,0.92636 -0.81808,1.49241 0.24499,0.58634 1.07651,0.77332 1.66324,0.37399 z m -15.071531,1.03717 c -0.07631,-0.0493 -0.08675,-0.0826 -0.02616,-0.0834 0.05546,-6.8e-4 0.124383,0.0368 0.153163,0.0834 0.06497,0.10511 0.03566,0.10511 -0.127,0 z m 38.790701,-0.254 c 0,-0.11642 0.0192,-0.16404 0.0427,-0.10584 0.0235,0.0582 0.0235,0.15346 0,0.21167 -0.0235,0.0582 -0.0427,0.0106 -0.0427,-0.10583 z M 93.854766,105.6054 c 0,-0.0438 0.03766,-0.10295 0.0837,-0.1314 0.04799,-0.0297 0.06219,0.004 0.03328,0.0797 -0.05629,0.14668 -0.116972,0.17352 -0.116972,0.0517 z m 43.084534,-0.15316 c -0.10531,-0.13429 -0.10232,-0.13728 0.032,-0.032 0.0815,0.0639 0.14816,0.13059 0.14816,0.14817 0,0.0697 -0.0695,0.0248 -0.18013,-0.1162 z m 0.18681,-0.49389 c 0.004,-0.0986 0.0241,-0.11869 0.0512,-0.0512 0.0245,0.0611 0.0215,0.13414 -0.007,0.16227 -0.0281,0.0281 -0.0481,-0.0219 -0.0445,-0.11112 z m -0.16933,-0.762 c 0.004,-0.0986 0.0241,-0.11869 0.0512,-0.0512 0.0245,0.0611 0.0215,0.13414 -0.007,0.16227 -0.0281,0.0281 -0.0481,-0.0219 -0.0445,-0.11112 z m -0.0597,-1.34761 c 0,-0.51224 0.0141,-0.71087 0.031,-0.44141 0.0169,0.26946 0.0167,0.68856 0,0.93133 -0.017,0.24278 -0.0308,0.0223 -0.0306,-0.48992 z m 2.97081,-0.48684 c -0.42015,-0.4445 -0.42015,-0.4445 0.0243,-0.0243 0.24447,0.23108 0.4445,0.4311 0.4445,0.4445 0,0.0632 -0.0784,-0.007 -0.46885,-0.42016 z m -0.72729,-0.635 c -0.10531,-0.13428 -0.10232,-0.13728 0.032,-0.032 0.0815,0.0639 0.14817,0.13058 0.14817,0.14816 0,0.0697 -0.0695,0.0248 -0.18014,-0.1162 z m -2.18385,-0.32455 c 0.004,-0.0986 0.0241,-0.11869 0.0512,-0.0512 0.0245,0.0611 0.0215,0.13414 -0.007,0.16227 -0.0281,0.0281 -0.0481,-0.0219 -0.0445,-0.11112 z m 0.39549,-0.51469 c 0.0582,-0.0235 0.15345,-0.0235 0.21166,0 0.0582,0.0235 0.0106,0.0427 -0.10583,0.0427 -0.11642,0 -0.16404,-0.0192 -0.10583,-0.0427 z m -29.04184,-0.64242 c -0.33422,-0.253799 -0.47753,-2.638847 -0.19177,-3.191459 0.3139,-0.607015 2.09837,-1.006813 2.53682,-0.568359 0.26837,0.268367 0.40825,2.431345 0.19089,2.951575 -0.24249,0.580363 -2.0693,1.162593 -2.53594,0.808243 z m 15.97184,-3.911781 c -0.0746,-0.194511 0.025,-0.284565 0.67263,-0.608065 0.92654,-0.462803 1.1824,-0.680025 1.11976,-0.950649 -0.0388,-0.167432 -0.0302,-0.191549 0.0342,-0.09634 0.22643,0.334601 -0.0516,0.617005 -1.15413,1.172183 -0.28765,0.144848 -0.54708,0.302313 -0.5765,0.349922 -0.13474,0.21802 0.32929,0.0367 1.38847,-0.542552 0.6327,-0.346012 1.45516,-0.747893 1.82769,-0.893069 0.37254,-0.145175 1.53459,-0.6779 2.58234,-1.183833 1.19112,-0.575166 2.53955,-1.145978 3.59833,-1.523233 3.74973,-1.336074 5.2968,-2.403926 6.24122,-4.307974 0.21073,-0.424835 0.35517,-0.593313 0.69538,-0.811064 1.29076,-0.826161 2.04553,-2.179243 2.46592,-4.420715 0.16112,-0.859051 0.13908,-2.135961 -0.0406,-2.352467 -0.42506,-0.512175 -1.99269,0.806672 -2.73569,2.301537 -0.19147,0.385222 -0.39326,0.73787 -0.44844,0.783662 -0.20905,0.173499 0.6499,-1.420892 1.01298,-1.880301 1.4681,-1.85758 2.44658,-1.919318 2.44225,-0.154096 -0.006,2.416523 -1.03567,4.719906 -2.57839,5.767552 -0.32989,0.224027 -0.53526,0.435152 -0.61958,0.636943 -0.81146,1.942091 -2.49571,3.140711 -6.35037,4.519326 -1.0449,0.373706 -2.42283,0.957829 -3.59834,1.525383 -1.04775,0.505871 -2.30505,1.077325 -2.794,1.269898 -0.48895,0.192572 -1.09855,0.475552 -1.35466,0.628844 -1.29369,0.774298 -1.75425,0.967807 -1.8305,0.769108 z M 91.907433,94.729981 c 0,-0.01819 0.130677,-0.04833 0.290394,-0.06697 0.159717,-0.01865 0.271769,-0.0038 0.249003,0.03307 -0.04097,0.06629 -0.539397,0.09762 -0.539397,0.0339 z m 33.974397,-0.98293 c 0,-0.20955 0.0165,-0.295275 0.0367,-0.1905 0.0202,0.104775 0.0202,0.276225 0,0.381 -0.0202,0.104775 -0.0367,0.01905 -0.0367,-0.1905 z m 18.7306,-0.423333 c 0.0843,-0.09313 0.1723,-0.169333 0.19558,-0.169333 0.0233,0 -0.0266,0.0762 -0.11091,0.169333 -0.0843,0.09313 -0.1723,0.169333 -0.19558,0.169333 -0.0233,0 0.0266,-0.0762 0.11091,-0.169333 z m -8.44021,-0.142503 c 0.0611,-0.02446 0.13415,-0.02145 0.16228,0.0067 0.0281,0.02813 -0.0219,0.04815 -0.11112,0.04447 -0.0986,-0.0041 -0.11869,-0.02412 -0.0512,-0.05115 z m 0.50271,-0.0829 c 0.0582,-0.02349 0.15346,-0.02349 0.21167,0 0.0582,0.02349 0.0106,0.0427 -0.10583,0.0427 -0.11642,0 -0.16405,-0.01922 -0.10584,-0.0427 z m 0.51329,-0.08643 c 0.0611,-0.02446 0.13415,-0.02145 0.16228,0.0067 0.0281,0.02813 -0.0219,0.04814 -0.11112,0.04447 -0.0986,-0.0041 -0.11869,-0.02412 -0.0512,-0.05115 z M 125.95012,92.851 c 0.004,-0.09863 0.0241,-0.118694 0.0512,-0.05115 0.0245,0.06112 0.0215,0.134144 -0.007,0.162278 -0.0281,0.02813 -0.0482,-0.02187 -0.0445,-0.111125 z m 11.57677,0.07622 c 0.0611,-0.02446 0.13415,-0.02145 0.16228,0.0067 0.0281,0.02813 -0.0219,0.04814 -0.11112,0.04447 -0.0986,-0.0041 -0.1187,-0.02412 -0.0512,-0.05115 z m 0.33867,-0.08467 c 0.0611,-0.02446 0.13414,-0.02145 0.16228,0.0067 0.0281,0.02813 -0.0219,0.04815 -0.11113,0.04447 -0.0986,-0.0041 -0.11869,-0.02412 -0.0512,-0.05115 z m 7.84754,-0.53483 c 0.27649,-0.2794 0.52175,-0.508 0.54503,-0.508 0.0233,0 -0.18388,0.2286 -0.46036,0.508 -0.27649,0.2794 -0.52175,0.508 -0.54504,0.508 -0.0233,0 0.18388,-0.2286 0.46037,-0.508 z m -6.97795,0.222435 c 0.0871,-0.07796 0.58562,-0.307036 0.58562,-0.269117 0,0.04877 -0.46938,0.300682 -0.56024,0.300682 -0.0334,0 -0.0448,-0.01421 -0.0254,-0.03157 z m -12.70037,-0.271824 c 0.004,-0.09863 0.0241,-0.118694 0.0512,-0.05115 0.0245,0.06112 0.0215,0.134145 -0.007,0.162278 -0.0281,0.02813 -0.0482,-0.02187 -0.0445,-0.111125 z M 89.98839,88.577766 c 0.03724,-2.804837 0.02493,-3.484096 -0.06378,-3.518137 -0.06046,-0.0232 -0.772539,0.135865 -1.582389,0.353483 -0.809851,0.217617 -1.548656,0.414336 -1.641789,0.437153 -0.09313,0.02282 -0.413257,0.11403 -0.711386,0.202695 -0.451438,0.13426 -0.884565,0.166568 -0.507233,0.03784 0.185581,-0.06331 1.223673,-0.352289 2.149952,-0.598486 0.465667,-0.123771 1.169355,-0.315062 1.563752,-0.425091 0.516859,-0.144195 0.747356,-0.17493 0.8255,-0.110077 0.145785,0.120992 0.160348,7.096576 0.01481,7.096576 -0.06758,0 -0.08077,-0.966098 -0.04744,-3.475952 z m 49.67104,3.443985 c 0,-0.01758 0.0667,-0.08426 0.14817,-0.148166 0.13429,-0.105315 0.13728,-0.10232 0.032,0.03197 -0.11061,0.141034 -0.18014,0.185884 -0.18014,0.1162 z M 89.641537,88.820215 c -0.01106,-1.755143 -0.0524,-3.211132 -0.09188,-3.235532 -0.0633,-0.03912 -1.870212,0.407848 -3.505389,0.867115 -0.314325,0.08828 -0.5715,0.133895 -0.5715,0.101359 0,-0.03253 0.238125,-0.118475 0.529167,-0.19098 0.291041,-0.0725 1.081616,-0.285355 1.756833,-0.473003 1.600766,-0.444865 1.848791,-0.489464 1.905157,-0.342577 0.02435,0.06346 0.0338,1.544004 0.021,3.290088 -0.02328,3.1747 -0.02328,3.1747 -0.04339,-0.01647 z m 50.779893,2.513836 c 0.15797,-0.162983 0.30627,-0.296333 0.32955,-0.296333 0.0233,0 -0.0869,0.13335 -0.24488,0.296333 -0.15797,0.162984 -0.30627,0.296334 -0.32955,0.296334 -0.0233,0 0.0869,-0.13335 0.24488,-0.296334 z m 1.69334,-1.608666 c 0.25293,-0.256117 0.47893,-0.465667 0.50221,-0.465667 0.0233,0 -0.16461,0.20955 -0.41755,0.465667 -0.25293,0.256116 -0.47893,0.465666 -0.50221,0.465666 -0.0233,0 0.16461,-0.20955 0.41755,-0.465666 z m -9.85662,-0.284916 c -0.0267,-0.04315 0.018,-0.149896 0.0992,-0.237223 0.0812,-0.08733 0.11913,-0.121776 0.0842,-0.07655 -0.22493,0.291248 0.0283,0.281337 1.17323,-0.04592 1.04498,-0.298684 1.97197,-0.689785 2.12877,-0.89813 0.11163,-0.148323 0.14761,-0.04883 0.041,0.113471 -0.23776,0.362091 -3.3798,1.381691 -3.52649,1.144355 z m 15.54578,-1.154418 c 0.002,-0.1397 0.0207,-0.1866 0.0422,-0.104222 0.0215,0.08238 0.02,0.196678 -0.003,0.254 -0.0232,0.05732 -0.0408,-0.01008 -0.039,-0.149778 z M 83.291157,86.204663 c -0.0223,-2.544613 0.01272,-2.384741 -0.483354,-2.206353 -0.634041,0.228 -0.609419,-0.06132 0.04617,-0.542573 0.435471,-0.319666 0.60401,-0.717104 0.449084,-1.059009 -0.06767,-0.149349 -0.124334,-0.123029 -0.666328,0.309525 -1.095519,0.874311 -3.068993,2.23554 -3.228683,2.227025 -0.14539,-0.0078 -0.14449,-0.01292 0.01105,-0.0635 0.236096,-0.07677 2.166809,-1.431921 3.052351,-2.142422 0.804161,-0.645205 0.969951,-0.67605 0.96816,-0.180128 -0.0019,0.531535 -0.08357,0.685311 -0.536704,1.01086 -0.445437,0.320013 -0.4244,0.471124 0.03887,0.27923 0.409411,-0.169584 0.418939,-0.112933 0.393123,2.337712 -0.02402,2.280355 -0.02402,2.280355 -0.04375,0.02963 z m 0.347115,-1.30472 c 0.0093,-3.968297 0.0838,-3.753176 -0.974024,-2.812066 -0.898,0.798922 -3.005931,2.346902 -3.189785,2.342451 -0.08652,-0.0021 -0.04297,-0.05588 0.11397,-0.140758 0.411398,-0.222494 2.402523,-1.731757 3.088748,-2.341257 1.165464,-1.035158 1.128544,-1.142565 1.031408,3.000602 -0.07824,3.337136 -0.07824,3.337136 -0.07032,-0.04897 z m 61.339288,3.116605 c 0.0611,-0.02446 0.13414,-0.02145 0.16228,0.0067 0.0281,0.02813 -0.0219,0.04814 -0.11113,0.04447 -0.0986,-0.0041 -0.11869,-0.02412 -0.0511,-0.05115 z m 0.42333,-0.08467 c 0.0611,-0.02446 0.13415,-0.02145 0.16228,0.0067 0.0281,0.02813 -0.0219,0.04814 -0.11112,0.04447 -0.0986,-0.0041 -0.1187,-0.02412 -0.0512,-0.05115 z m 2.39322,-0.07622 c 0.004,-0.09863 0.0241,-0.118694 0.0512,-0.05115 0.0245,0.06112 0.0214,0.134144 -0.007,0.162278 -0.0281,0.02813 -0.0482,-0.02187 -0.0445,-0.111125 z m -2.05455,-0.0085 c 0.0611,-0.02446 0.13414,-0.02145 0.16228,0.0067 0.0281,0.02813 -0.0219,0.04815 -0.11113,0.04447 -0.0986,-0.0041 -0.11869,-0.02413 -0.0511,-0.05115 z m 0.42333,-0.08467 c 0.0611,-0.02446 0.13415,-0.02145 0.16228,0.0067 0.0281,0.02813 -0.0219,0.04814 -0.11112,0.04447 -0.0986,-0.0041 -0.1187,-0.02412 -0.0512,-0.05115 z m -38.59212,-0.08689 c -1.17815,-0.433198 0.23634,-1.865969 2.00524,-2.031151 0.29412,-0.02747 0.53533,-0.073 0.53604,-0.101192 0.003,-0.135139 0.33401,-3.93147 0.386,-4.432033 0.0791,-0.761484 0.0576,-0.751412 1.59718,-0.749025 1.93082,0.003 2.50287,0.09854 2.50287,0.418046 0,0.13158 -0.13648,0.162542 -1.0795,0.244909 -1.32087,0.115368 -2.20379,0.365174 -2.25789,0.638827 -0.0204,0.103043 -0.1171,1.044602 -0.21495,2.092352 -0.26142,2.799092 -0.24117,2.684659 -0.53415,3.01834 -0.56123,0.639209 -2.2476,1.155829 -2.94084,0.900927 z m 39.01545,0.0022 c 0.0611,-0.02446 0.13415,-0.02145 0.16228,0.0067 0.0281,0.02813 -0.0219,0.04815 -0.11112,0.04447 -0.0986,-0.0041 -0.11869,-0.02412 -0.0512,-0.05115 z m -34.76095,-0.570916 c -0.78014,-0.354593 0.26051,-1.391024 1.67216,-1.665389 0.72871,-0.14163 0.7328,-0.149301 0.79825,-1.497082 0.0683,-1.407699 0.10177,-1.599981 0.28609,-1.646029 0.60625,-0.151463 2.85504,0.278712 3.26102,0.623806 0.3001,0.255099 -0.005,0.439715 -0.62002,0.374785 -0.59559,-0.06291 -1.82884,0.07902 -2.07221,0.238488 -0.16998,0.111374 -0.19219,0.215129 -0.24062,1.12427 -0.0635,1.191886 -0.14841,1.529551 -0.45947,1.827099 -0.58694,0.561443 -2.01307,0.898284 -2.6252,0.620052 z m 16.8275,-1.350545 c 0,-0.01758 0.0667,-0.08426 0.14816,-0.148167 0.13429,-0.105314 0.13728,-0.102319 0.032,0.03197 -0.11061,0.141033 -0.18013,0.185884 -0.18013,0.1162 z m 8.636,-0.254 c 0,-0.01758 0.0667,-0.08426 0.14816,-0.148167 0.13429,-0.105314 0.13728,-0.102319 0.032,0.03197 -0.11061,0.141034 -0.18013,0.185884 -0.18013,0.1162 z m -8.382,-0.08467 c 0,-0.01758 0.0667,-0.08426 0.14816,-0.148166 0.13429,-0.105315 0.13728,-0.10232 0.032,0.03197 -0.11061,0.141034 -0.18013,0.185884 -0.18013,0.1162 z m 0.33866,-0.423333 c 0,-0.01758 0.0667,-0.08426 0.14817,-0.148167 0.13429,-0.105314 0.13728,-0.102319 0.032,0.03197 -0.11061,0.141033 -0.18014,0.185884 -0.18014,0.1162 z m 8.763,-0.3067 c 0.18188,-0.186267 0.34975,-0.338667 0.37304,-0.338667 0.0233,0 -0.10649,0.1524 -0.28837,0.338667 -0.18188,0.186267 -0.34975,0.338667 -0.37303,0.338667 -0.0233,0 0.10648,-0.1524 0.28836,-0.338667 z m -8.17033,-0.370633 c 0,-0.01758 0.0667,-0.08426 0.14817,-0.148167 0.13429,-0.105314 0.13727,-0.10232 0.032,0.03197 -0.11061,0.141033 -0.18014,0.185884 -0.18014,0.1162 z m 8.80533,-0.169334 c 0,-0.01758 0.0667,-0.08426 0.14817,-0.148166 0.13429,-0.105315 0.13728,-0.10232 0.032,0.03197 -0.11061,0.141034 -0.18014,0.185884 -0.18014,0.1162 z m -4.21683,-0.349033 c 0.002,-0.1397 0.0207,-0.1866 0.0422,-0.104222 0.0215,0.08238 0.0201,0.196678 -0.003,0.254 -0.0232,0.05732 -0.0408,-0.01008 -0.039,-0.149778 z m -3.74183,-0.254 c 0.10936,-0.116417 0.21789,-0.211667 0.24118,-0.211667 0.0233,0 -0.0471,0.09525 -0.15652,0.211667 -0.10936,0.116417 -0.2179,0.211667 -0.24118,0.211667 -0.0233,0 0.0471,-0.09525 0.15652,-0.211667 z m 3.65403,-0.719667 c 0,-0.116416 0.0192,-0.164041 0.0427,-0.105833 0.0235,0.05821 0.0235,0.153458 0,0.211667 -0.0235,0.05821 -0.0427,0.01058 -0.0427,-0.105834 z m -1.87603,-0.508 c 0.0699,-0.04514 0.1651,-0.08207 0.21166,-0.08207 0.0466,0 0.0275,0.03693 -0.0423,0.08207 -0.0699,0.04514 -0.1651,0.08207 -0.21167,0.08207 -0.0466,0 -0.0275,-0.03693 0.0423,-0.08207 z m 1.24883,-0.394739 c 0.0582,-0.02349 0.15346,-0.02349 0.21167,0 0.0582,0.02349 0.0106,0.0427 -0.10584,0.0427 -0.11641,0 -0.16404,-0.01922 -0.10583,-0.0427 z"
         id="path5717" /><path
         style="display:inline;fill:#fd7161;stroke-width:0.0846667"
         d="m 112.76132,135.02937 c -0.36808,-0.31661 -0.37707,-21.02133 -0.009,-21.64673 0.31196,-0.53064 0.72362,-0.88128 1.71919,-1.46436 0.46567,-0.27273 1.18957,-0.69643 1.60867,-0.94155 0.4191,-0.24512 1.2573,-0.72304 1.86266,-1.06205 0.60537,-0.339 1.59597,-0.91041 2.20134,-1.26979 0.60536,-0.35938 1.90076,-1.1119 2.87866,-1.67227 0.9779,-0.56036 2.40656,-1.38411 3.17481,-1.83054 2.52617,-1.46799 2.28619,-2.52641 2.28619,10.08318 0,6.5163 -0.0309,10.50761 -0.0827,10.68831 -0.25669,0.89504 -0.60127,1.12785 -8.68029,5.86499 -1.07103,0.628 -2.72838,1.60042 -3.683,2.16095 -2.51004,1.47382 -2.74059,1.55052 -3.27611,1.08986 z m 7.35461,-4.76177 c 0.13689,-0.12388 0.15494,-0.28827 0.15577,-1.41817 0.001,-1.82927 0.0131,-1.87596 0.51226,-2.04177 1.6627,-0.55226 3.00434,-2.2011 3.41842,-4.20115 0.0305,-0.14754 0.18327,-0.31155 0.44917,-0.48236 2.37801,-1.52759 3.38869,-6.25437 1.96864,-9.20694 -0.90166,-1.87472 -3.69614,-3.54314 -4.53294,-2.70634 -0.22716,0.22717 -0.33882,8.10988 -0.12064,8.51754 0.58167,1.08687 1.60602,0.21373 1.6065,-1.36936 7.6e-4,-2.39415 0.0841,-3.292 0.30588,-3.292 1.79765,0 2.21708,2.21278 0.92277,4.86833 -0.72712,1.49187 -1.38305,1.98184 -2.94636,2.20092 -2.1741,0.30467 -3.64861,1.47145 -4.03426,3.19228 -0.21707,0.96862 0.37978,2.20933 1.15846,2.40818 0.18933,0.0483 0.1905,0.0587 0.1905,1.69047 0,1.93135 0.26834,2.45348 0.94583,1.84037 z m -16.45702,-4.82358 c -0.20542,-0.0606 -0.24127,-0.24091 -0.21787,-1.09592 0.0348,-1.27025 -0.75851,-2.24419 -1.43943,-1.76725 -0.38222,0.26771 0.0992,1.22287 0.6164,1.22287 0.19782,0 0.1843,1.42256 -0.0143,1.49875 -0.31106,0.11937 -2.31431,-1.14428 -2.956817,-1.86516 -1.633092,-1.83229 -1.835973,-2.75913 -1.816583,-8.29888 0.01723,-4.92365 0.003,-4.85174 0.953353,-4.82682 0.802533,0.021 0.784677,-0.0824 0.785408,4.54787 5.08e-4,3.43644 0.02018,4.11543 0.122579,4.23896 0.241226,0.291 1.08644,0.62987 2.1262,0.85245 3.31455,0.70954 4.27951,1.26966 4.70421,2.73059 0.43462,1.49502 -1.34357,3.21069 -2.8632,2.76254 z m 0.75411,-19.87637 c -2.37661,-0.65788 -0.99601,-3.30727 1.80308,-3.46013 0.381,-0.0208 0.381,-0.0208 0.4051,-0.88657 0.0241,-0.86576 0.0241,-0.86576 0.32308,-1.0938 0.16443,-0.12542 0.37344,-0.373999 0.46445,-0.552401 0.28286,-0.55446 0.30894,-0.385796 0.2738,1.771131 -0.0549,3.36763 -1.16707,4.80376 -3.26951,4.22177 z m 26.49143,-7.966595 c -0.83036,-0.446508 -0.65696,-1.761689 0.33265,-2.523092 0.87383,-0.672333 3.51863,-1.754245 4.28835,-1.754245 0.19702,0 0.2444,4.165255 0.0488,4.291836 -0.22097,0.14301 -4.40105,0.130031 -4.66982,-0.0145 z M 87.67499,96.613599 c -1.74272,-0.288683 -2.124216,-1.814604 -0.813927,-3.255577 0.962459,-1.05845 2.507711,-1.585491 3.462597,-1.180992 0.480973,0.203745 0.483106,0.196026 0.483106,-1.748352 0,-1.784379 0,-1.784379 0.579931,-1.742886 2.549606,0.182424 3.391119,3.413499 1.44024,5.529952 -0.571748,0.620274 -1.471452,0.06851 -1.86112,-1.141369 -0.207063,-0.642908 -0.349751,-0.659382 -0.23156,-0.02674 0.09235,0.494303 0.420344,1.055285 0.789002,1.349443 0.602302,0.480588 -1.056921,1.905804 -2.551672,2.191797 -0.699789,0.133891 -0.643968,0.132827 -1.296597,0.02472 z m 22.56278,-2.419328 c -0.0931,-0.02263 -0.28775,-0.130317 -0.43247,-0.239312 -0.47923,-0.360916 -5.68037,-3.252155 -9.51587,-5.289735 -2.72874,-1.449623 -2.737553,-1.458884 -2.737553,-2.876839 0,-1.376853 -0.100686,-1.2959 5.192893,-4.17518 0.72178,-0.392593 1.86478,-1.027291 2.54,-1.41044 5.15161,-2.923267 4.60906,-2.950741 10.795,0.546651 0.51223,0.289605 2.11243,1.147154 3.556,1.905663 3.50248,1.840347 3.39533,1.749112 3.43106,2.921639 0.0552,1.812924 0.70788,1.265407 -6.30973,5.293332 -1.6764,0.96221 -3.5824,2.075222 -4.23555,2.473358 -1.36801,0.833886 -1.75704,0.978828 -2.28378,0.850863 z m -1.28827,-6.59179 c 0.69795,-0.180855 1.25182,-0.47435 1.56211,-0.827756 0.29298,-0.333681 0.27273,-0.219248 0.53415,-3.01834 0.0978,-1.04775 0.19458,-1.989309 0.21495,-2.092352 0.0541,-0.273653 0.93702,-0.523459 2.25789,-0.638827 0.94302,-0.08237 1.0795,-0.113329 1.0795,-0.244909 0,-0.319505 -0.57205,-0.415052 -2.50287,-0.418046 -1.53956,-0.0024 -1.51809,-0.01246 -1.59718,0.749025 -0.052,0.500563 -0.38263,4.296894 -0.386,4.432033 -6.8e-4,0.02819 -0.24192,0.07373 -0.53604,0.101192 -1.25854,0.117525 -2.42858,0.871934 -2.42858,1.56589 0,0.480714 0.79366,0.653395 1.80207,0.39209 z m -4.27068,-0.632829 c 0.92998,-0.411225 1.08385,-0.725582 1.20563,-2.462997 0.13161,-1.877714 0.0788,-1.829965 2.1302,-1.926461 1.26977,-0.05973 1.57309,-0.142832 1.34671,-0.368976 -0.19425,-0.194046 -3.14054,-0.106395 -3.48021,0.103535 -0.0862,0.05326 -0.14357,0.449579 -0.21351,1.474401 -0.11298,1.655648 -0.0149,1.505048 -0.99102,1.520819 -0.87866,0.0142 -1.35051,0.207897 -1.79593,0.737247 -0.75393,0.895999 0.45518,1.516269 1.79813,0.922432 z m 9.07008,-0.04538 c 0.93989,-0.429857 1.07761,-0.69846 1.16104,-2.264463 0.0484,-0.909141 0.0706,-1.012896 0.24062,-1.12427 0.24337,-0.159464 1.47662,-0.301397 2.07221,-0.238488 0.61471,0.06493 0.92012,-0.119686 0.62002,-0.374785 -0.40598,-0.345094 -2.65477,-0.775269 -3.26102,-0.623806 -0.18432,0.04605 -0.21774,0.23833 -0.28609,1.646029 -0.0654,1.347781 -0.0695,1.355452 -0.79825,1.497082 -1.41165,0.274365 -2.4523,1.310796 -1.67216,1.665389 0.39431,0.179226 1.3257,0.09077 1.92363,-0.182688 z m -31.334934,5.243663 c -0.833817,-1.003013 0.400327,-3.857807 1.704133,-3.941962 0.381,-0.02459 0.381,-0.02459 0.423334,-1.443072 0.02328,-0.780164 0.07091,-1.41834 0.105833,-1.418167 0.03493,1.7e-4 0.094,3.39e-4 0.131283,3.39e-4 0.10728,0 0.570075,0.77863 0.540897,0.910031 -0.01448,0.06519 0.01595,0.169463 0.06761,0.231712 0.06912,0.08328 0.0678,0.129334 -0.005,0.17433 -0.07129,0.04406 -0.08324,0.312344 -0.04277,0.960037 0.07538,1.206452 -0.05938,2.435696 -0.323848,2.95403 -0.553504,1.084808 -2.18642,2.072009 -2.601462,1.572747 z m -6.515188,-1.648502 c -0.663585,-1.226807 0.541197,-3.737636 1.853974,-3.863777 0.490768,-0.04716 0.523347,-0.183301 0.523347,-2.18703 0,-1.128025 0.03474,-1.266578 0.292746,-1.167572 0.187751,0.07205 0.859852,1.073018 0.745967,1.110979 -0.05962,0.01987 -0.09437,0.593559 -0.101752,1.680095 -0.01582,2.328032 -0.136652,2.814651 -0.913444,3.678632 -0.71,0.789691 -2.137815,1.234938 -2.400838,0.748673 z m 9.659449,-2.042885 c 0.0039,-0.519674 0.926,-1.419602 1.580357,-1.54236 0.16845,-0.0316 0.397907,-0.117499 0.509908,-0.190884 0.539581,-0.353548 0.35334,0.06317 -0.34165,0.764448 -0.869602,0.877469 -1.751598,1.366127 -1.748615,0.968796 z m -6.012128,-1.729179 c 0,-0.645317 1.016021,-1.67553 1.947985,-1.975196 0.738976,-0.237613 0.82137,-0.179581 0.556554,0.391998 -0.484294,1.045296 -2.504539,2.322357 -2.504539,1.583198 z"
         id="path5715" /><path
         style="display:inline;fill:#4ccf79;stroke-width:0.0846667"
         d="m 111.98391,147.54148 c 0.0466,-0.24943 0.26703,-0.68339 0.62347,-1.2274 0.30326,-0.46285 0.55139,-0.87833 0.55139,-0.92329 0,-0.27402 -0.43701,0.19295 -0.87431,0.93426 -0.29434,0.49895 -0.28152,0.32971 0.063,-0.8322 0.37048,-1.24937 0.88121,-1.77486 2.44822,-2.51903 0.90302,-0.42885 0.94114,-0.40174 0.8761,0.62293 -0.15443,2.43276 -1.10776,3.81918 -2.80939,4.08569 -0.37253,0.0583 -0.73882,0.13731 -0.81397,0.17548 -0.12061,0.0613 -0.12818,0.0241 -0.0646,-0.31644 z m -1.92519,0.17898 c -1.77052,-0.32413 -2.82662,-2.0488 -2.82662,-4.61604 0,-2.64089 3.6165,0.47884 4.077,3.51696 0.0891,0.58754 -0.0547,1.41543 -0.16175,0.93134 -0.25357,-1.14694 -1.93861,-3.90426 -2.21945,-3.6318 -0.0715,0.0694 0.0124,0.22109 0.32482,0.58718 0.47989,0.56237 1.07621,1.65422 1.39971,2.56283 0.3163,0.88842 0.37291,0.82648 -0.59371,0.64953 z m 1.25412,-3.97269 c -0.65234,-0.58935 -1.03097,-3.01575 -0.67129,-4.30189 0.18417,-0.65856 1.16255,0.25985 1.16255,1.09128 0,0.12589 0.0645,0.3002 0.14342,0.38737 0.13478,0.14893 0.13478,0.15516 0,0.10344 -0.17437,-0.0669 -0.17403,-0.10152 -0.008,0.80725 0.13149,0.71872 0.13002,0.76315 -0.0481,1.45014 -0.22483,0.86735 -0.17484,0.82741 -0.57885,0.46241 z m 0.74754,0.12139 c -10e-4,-0.0702 0.0362,-0.26066 0.0833,-0.42333 0.17121,-0.59193 0.24945,-1.28745 0.16302,-1.44896 -0.10532,-0.19677 0.12213,-0.58249 0.34348,-0.58249 0.59227,0 0.38038,1.43823 -0.3368,2.286 -0.15149,0.17907 -0.25159,0.24586 -0.25296,0.16878 z m 31.40762,-1.78089 c -0.13576,-0.32776 -0.0731,-0.92689 0.22976,-2.19789 0.21436,-0.89949 0.23223,-1.11044 0.23469,-2.76921 0.003,-1.79555 0.003,-1.79555 0.6233,-2.02191 1.70281,-0.62104 2.04817,-0.27323 1.79019,1.80282 -0.30269,2.43585 -2.42958,6.26861 -2.87794,5.18619 z m -16.93099,-4.73023 c -1.08708,-0.18395 -0.56925,-4.97285 0.72057,-6.66389 0.37796,-0.49553 0.96217,-0.24718 1.67957,0.714 0.77473,1.03798 1.0822,1.30343 1.56325,1.34966 0.53494,0.0514 0.53881,0.0763 0.17931,1.15109 -0.76786,2.29567 -2.48931,3.72892 -4.1427,3.44914 z m -19.16343,-2.53599 c -3.18251,-1.62366 -6.9661,-3.5816 -8.481147,-4.38885 -0.6985,-0.37217 -1.8415,-0.96599 -2.54,-1.3196 -2.769251,-1.40191 -2.523083,-0.13764 -2.503603,-12.85802 0.0175,-11.42924 -0.01025,-10.79705 0.488442,-11.12438 0.560724,-0.36804 0.577658,-0.36124 6.163828,2.47834 11.13311,5.6592 10.19787,5.14457 10.48756,5.77099 0.23164,0.5009 0.29136,21.54791 0.0627,22.09002 -0.36266,0.8597 -0.91112,0.763 -3.67776,-0.6485 z m -2.23599,-9.57872 c 1.07774,-0.40324 1.68526,-1.52735 1.38452,-2.56185 -0.4247,-1.46093 -1.38966,-2.02105 -4.70421,-2.73059 -1.03976,-0.22258 -1.884974,-0.56145 -2.1262,-0.85245 -0.102403,-0.12353 -0.122037,-0.80252 -0.122579,-4.23896 -6.77e-4,-4.09187 -6.77e-4,-4.09187 -0.224219,-4.31544 -0.386255,-0.38626 -1.200616,-0.28247 -1.411268,0.17986 -0.161516,0.35449 -0.145281,8.50215 0.01853,9.30011 0.468014,2.27979 1.745629,3.88899 4.037766,5.08571 0.68214,0.35614 0.75484,0.30009 0.75484,-0.58206 0,-0.69187 0.008,-0.72277 0.20497,-0.77216 0.46587,-0.11693 0.51732,-0.0474 0.48517,0.65583 -0.0336,0.73458 0.0179,0.97191 0.224,1.03269 0.25553,0.0754 1.01716,-0.028 1.47868,-0.20069 z m 38.28496,7.88108 c 0.0737,-0.11924 -0.41784,-1.30693 -0.86153,-2.08169 -1.40433,-2.45222 -2.96467,-3.94237 -4.65842,-4.44887 -0.48099,-0.14383 -0.46706,-0.17117 0.32321,-0.63448 1.56806,-0.91929 5.60595,1.52096 6.94042,4.19435 0.34906,0.6993 0.69445,1.70829 0.6109,1.78465 -0.29119,0.26614 -2.46178,1.3595 -2.35458,1.18604 z M 80.936445,120.60034 c -0.677826,-0.31802 -0.975228,-0.98252 -0.801993,-1.79196 0.05481,-0.25611 0.10129,-0.55139 0.103278,-0.65616 0.002,-0.10478 0.03768,-0.1905 0.07933,-0.1905 0.04164,0 0.07571,-0.0366 0.07571,-0.0812 0,-0.18589 1.267587,-1.34447 1.705228,-1.55859 0.897765,-0.43923 2.078779,-0.38474 2.719314,0.12547 0.175014,0.13941 0.355989,0.23012 0.402167,0.20158 0.05165,-0.0319 0.08396,0.1292 0.08396,0.41877 0,0.29156 0.03616,0.47066 0.09503,0.47066 0.06236,0 0.06746,0.0364 0.01482,0.10584 -0.04412,0.0582 -0.128643,0.27728 -0.18784,0.48683 -0.51587,1.82613 -2.825576,3.15588 -4.289005,2.46929 z m 56.860325,-4.63116 c -0.89984,-0.18301 -1.30047,-0.53972 -2.28662,-2.03598 -0.99845,-1.51493 -0.62003,-1.94051 0.67154,-0.75523 0.81894,0.75154 1.29458,0.76664 0.60968,0.0194 -1.55279,-1.69426 -2.32562,-2.88824 -2.33423,-3.60628 -0.007,-0.60518 0.22046,-0.57868 0.95121,0.11068 0.7866,0.74203 1.09585,0.74686 0.49013,0.008 -0.44675,-0.5452 -0.80604,-1.20286 -0.94171,-1.72373 -0.38461,-1.47662 0.15285,-1.82749 0.93358,-0.60947 0.62499,0.97504 0.77535,0.77419 0.46643,-0.62309 -0.41321,-1.86906 -0.17062,-2.76481 0.43348,-1.60059 0.37344,0.71969 0.5111,0.38518 0.28497,-0.69241 -0.17999,-0.8577 -0.15717,-3.14674 0.0337,-3.37669 0.71065,-0.85627 3.52759,1.5928 4.41639,3.83965 1.27411,3.22089 0.96819,5.12013 -1.17643,7.30356 -1.22947,1.25172 -1.57402,1.94769 -0.41931,0.84697 0.64603,-0.61581 0.95807,-0.78453 1.45098,-0.78453 0.83496,0 0.7725,0.19914 -0.60278,1.92176 -0.98202,1.23004 -1.25541,1.48294 -1.88032,1.73938 -0.375,0.15389 -0.46906,-2.28208 -0.20804,-5.38815 0.19704,-2.3447 0.0315,-4.53565 -0.46776,-6.18932 -0.0422,-0.1397 -0.11839,-0.41593 -0.16937,-0.61384 -0.0928,-0.36016 -0.25549,-0.49311 -0.25549,-0.20875 0,0.0831 0.13841,0.75937 0.30759,1.50283 0.62097,2.72894 0.3863,11.05734 -0.30759,10.91622 z m -52.20526,-6.47413 c 0,-0.72178 0.01299,-1.01706 0.02886,-0.65617 0.01587,0.3609 0.01587,0.95145 0,1.31234 -0.01587,0.36089 -0.02886,0.0656 -0.02886,-0.65617 z m -0.0056,-3.13267 c 0,-0.34925 0.01494,-0.49212 0.03321,-0.3175 0.01827,0.17463 0.01827,0.46038 0,0.635 -0.01827,0.17463 -0.03321,0.0318 -0.03321,-0.3175 z m -0.0054,-1.18533 c 0,-0.20955 0.01651,-0.29527 0.03669,-0.1905 0.02018,0.10478 0.02018,0.27623 0,0.381 -0.02018,0.10478 -0.03669,0.0191 -0.03669,-0.1905 z m 50.09959,-9.744053 c 0,-2.415391 -0.12779,-2.11588 0.97367,-2.282068 2.04196,-0.30809 2.58433,-0.624376 5.00968,-2.92144 1.90752,-1.806624 2.0174,-1.867211 4.28974,-2.365342 1.84434,-0.404308 1.87652,-0.396183 1.83821,0.464238 -0.14399,3.233998 -4.75318,7.09093 -10.50263,8.788516 -1.79151,0.528961 -1.60867,0.720352 -1.60867,-1.683904 z m 2.71429,-0.335754 c 1.79274,-0.648351 4.91508,-2.475352 4.66233,-2.728109 -0.0642,-0.06416 -0.34341,0.078 -0.96071,0.489084 -1.08315,0.721319 -2.46064,1.446345 -3.62191,1.906347 -1.00029,0.396236 -0.96826,0.378254 -0.89248,0.500853 0.0703,0.11378 -0.0166,0.131756 0.81277,-0.168175 z m -12.30444,-0.473431 c -1.31844,-3.678227 4.06744,-12.560889 7.63926,-12.599043 1.32812,-0.01419 0.53565,4.529406 -1.20912,6.932388 -0.16657,0.229407 -0.28696,0.442825 -0.26753,0.474262 0.0685,0.110858 -2.44434,0.673305 -2.54746,0.570192 -0.027,-0.02696 0.0499,-0.198529 0.17085,-0.381259 0.12092,-0.182729 0.34731,-0.633901 0.50308,-1.002601 0.15577,-0.368702 0.47367,-1.089466 0.70643,-1.6017 0.50772,-1.11734 0.81873,-2.032687 0.75081,-2.209707 -0.0679,-0.176807 -0.18938,-0.08402 -0.25944,0.198074 -0.083,0.334031 -0.47859,1.300434 -0.87776,2.144156 -0.18872,0.398854 -0.42127,0.923492 -0.51681,1.165862 -0.47589,1.20735 -0.9628,1.843738 -1.69252,2.212098 -0.91569,0.462239 -1.18274,0.925569 -1.57376,2.730521 -0.26413,1.219185 -0.65005,1.857726 -0.82603,1.366757 z m 9.80358,-6.63908 c 0.53594,-1.519021 2.08594,-3.43457 3.5819,-4.426652 0.62944,-0.417431 0.64548,-0.421051 0.53095,-0.119805 -0.0446,0.117356 -0.12493,0.684615 -0.17847,1.260576 -0.21208,2.281684 -0.53607,2.739021 -2.18098,3.078575 -0.15226,0.03143 -0.62834,0.168255 -1.05794,0.304053 -0.42961,0.135798 -0.78911,0.246906 -0.79891,0.246906 -0.01,0 0.0368,-0.154644 0.10345,-0.343653 z M 103.0326,87.112097 c -1.0847,-0.494009 0.0857,-1.776947 1.64402,-1.802124 0.97617,-0.01577 0.87804,0.134829 0.99102,-1.520819 0.0699,-1.024822 0.12733,-1.421137 0.21351,-1.474401 0.33967,-0.20993 3.28596,-0.297581 3.48021,-0.103535 0.22638,0.226144 -0.0769,0.309248 -1.34671,0.368976 -2.05139,0.0965 -1.99859,0.04875 -2.1302,1.926461 -0.10215,1.457352 -0.16149,1.671495 -0.57096,2.060357 -0.53604,0.509067 -1.73227,0.794942 -2.28089,0.545085 z"
         id="path5713" /><path
         style="display:inline;fill:#2b3279;stroke-width:0.0846667"
         d="m 111.74966,147.53155 c 0.0721,-1.20876 0.0834,-3.37719 0.018,-3.48291 -0.0286,-0.0463 0.0289,-0.39645 0.12784,-0.77809 0.17479,-0.67433 0.17594,-0.71536 0.0406,-1.4549 -0.0766,-0.41855 -0.1211,-0.77912 -0.099,-0.80127 0.0893,-0.0893 0.20495,0.0769 0.26087,0.37498 0.0326,0.17353 0.11179,0.41722 0.17608,0.54154 0.12481,0.24134 0.0921,0.5821 -0.16182,1.68482 -0.14958,0.64962 -0.22399,2.97473 -0.0966,3.01789 0.0466,0.0158 0.17598,-0.13292 0.2876,-0.33044 0.39079,-0.69157 0.8554,-1.18712 0.8554,-0.91238 0,0.045 -0.25265,0.46733 -0.56143,0.93861 -0.50232,0.76665 -0.57095,0.92296 -0.65186,1.48459 -0.137,0.95099 -0.25894,0.7751 -0.19582,-0.28244 z m -1.08773,-0.42938 c -0.32604,-0.92763 -0.91967,-2.0204 -1.40921,-2.59407 -0.3124,-0.36609 -0.39632,-0.5178 -0.32482,-0.58718 0.28023,-0.27187 2.19887,2.88351 2.19887,3.61625 0,0.40534 -0.25255,0.169 -0.46484,-0.435 z m -23.241831,-2.51716 c -0.20955,-0.066 -0.485775,-0.12064 -0.613833,-0.12134 -0.493862,-0.003 0.139548,-0.63373 1.434584,-1.42912 2.251798,-1.38303 3.063977,-3.33356 2.990836,-7.18281 -0.01495,-0.78695 0.435712,-1.11634 0.805337,-0.58863 0.164401,0.23472 0.164468,1.07061 8.4e-5,1.28793 -0.213134,0.28179 -0.14687,0.4877 0.420772,1.30753 0.887518,1.28183 1.028712,1.89553 0.769402,3.34415 -0.06884,0.38459 -0.07893,0.67302 -0.02874,0.82154 0.09502,0.28117 -0.939813,1.65387 -1.577593,2.09267 -0.778415,0.53557 -3.148554,0.79966 -4.200865,0.46808 z m -2.097888,-1.60173 c -2.125366,-0.66367 -1.622898,-2.75106 0.662788,-2.7534 1.039655,-0.001 1.011767,0.0334 1.011767,-1.24964 0,-1.93534 0.881406,-2.35837 2.212089,-1.06168 0.667411,0.65036 1.023487,0.47604 1.269058,-0.62129 0.251035,-1.12175 0.309188,0.38974 0.068,1.76742 -0.453891,2.59266 -3.103855,4.58054 -5.223702,3.91859 z m 48.537559,-3.51647 c -1.36621,-0.16407 -2.81745,-0.455 -2.95479,-0.59235 -0.1263,-0.1263 0.0438,-0.10835 1.13445,0.11974 1.06999,0.22376 2.20355,0.35464 3.78808,0.43737 0.57002,0.0298 1.01545,0.088 0.98983,0.12946 -0.074,0.11969 -1.57422,0.0719 -2.95757,-0.0942 z m -56.741551,-2.50825 c -0.13736,-0.20964 -0.137537,-0.25394 -0.0031,-0.76663 0.142715,-0.54413 0.142715,-0.54413 -0.103676,-1.03224 -0.17355,-0.34379 -0.286838,-0.76168 -0.383204,-1.41353 -0.07525,-0.50899 -0.215277,-1.39326 -0.311176,-1.96504 -0.146318,-0.87239 -0.156256,-1.06303 -0.06178,-1.18533 1.775292,-2.29819 3.197273,-3.29754 4.964989,-3.48931 0.478426,-0.0519 1.015597,-0.14579 1.193713,-0.20863 0.853381,-0.30109 0.821585,1.6566 -0.04372,2.69154 -0.255561,0.30566 -0.223244,0.3493 0.507764,0.68577 1.557757,0.71701 1.516985,1.89455 -0.08049,2.3247 -0.622027,0.16749 -0.658782,0.26253 -0.709227,1.83386 -0.07643,2.38074 -1.635088,2.49024 -2.691347,0.18908 -0.287662,-0.62671 -0.463588,-0.62746 -0.540082,-0.002 -0.08887,0.72627 -0.142304,0.84869 -0.582734,1.33503 -0.274077,0.30264 -0.421413,0.54097 -0.421413,0.68167 0,0.54374 -0.457653,0.74398 -0.734547,0.32138 z m 66.731741,-2.04234 c -0.20413,-1.54364 -0.21074,-1.54996 -1.26525,-1.21217 -1.51323,0.48473 -4.16397,0.89561 -4.39499,0.68125 -0.04,-0.0371 0.18861,-0.0909 0.508,-0.11965 2.7463,-0.24681 4.59031,-0.81282 6.58584,-2.0215 0.27599,-0.16716 0.53648,-0.28249 0.57888,-0.25629 0.12212,0.0755 -0.0282,0.18282 -1.09659,0.78328 -1.14714,0.64469 -1.0977,0.5366 -0.80472,1.75965 0.0915,0.38174 0.14523,0.71511 0.11951,0.74083 -0.11676,0.11677 -0.18141,0.0172 -0.23068,-0.3554 z M 86.150099,133.1649 c 0,-1.52806 0.07246,-1.61766 1.862667,-2.30324 1.768203,-0.67715 2.23613,-0.90736 2.595948,-1.27719 0.479404,-0.49274 0.468002,-0.51491 0.437131,0.84967 -0.02701,1.19387 -0.03101,1.21605 -0.271423,1.50284 -0.608315,0.72565 -1.331761,1.12544 -2.761656,1.52611 -0.48895,0.13702 -1.072507,0.36286 -1.296793,0.50187 -0.575079,0.35645 -0.565874,0.36946 -0.565874,-0.80006 z m 33.189331,-2.92652 c -0.26603,-0.26602 -0.2607,-4.179 0.006,-4.51824 0.19798,-0.25169 0.54041,-0.29535 0.80317,-0.10241 0.22468,0.16497 0.20059,4.38641 -0.0265,4.64182 -0.17644,0.19845 -0.57396,0.1877 -0.78283,-0.0212 z m 15.748,-3.72533 c 0.31891,-0.10213 1.00471,-0.10213 0.84667,0 -0.0699,0.0451 -0.33655,0.0789 -0.59267,0.0749 -0.35952,-0.006 -0.41741,-0.0226 -0.254,-0.0749 z m 1.10772,-0.0302 c 0.0952,-0.0814 0.58562,-0.12531 0.58562,-0.0524 0,0.0454 -0.1397,0.0826 -0.31045,0.0826 -0.17074,0 -0.29457,-0.0136 -0.27517,-0.0302 z m 2.14973,-6.08341 c -0.0275,-0.0718 -0.0256,-2.3737 0.004,-5.11532 0.0997,-9.14826 0.11125,-8.66666 -0.24476,-10.23118 -0.16918,-0.74347 -0.30759,-1.41974 -0.30759,-1.50284 0,-0.28436 0.16272,-0.15141 0.2555,0.20875 0.051,0.19791 0.12719,0.47414 0.16936,0.61384 0.48963,1.62192 0.66255,3.83526 0.48026,6.14699 -0.0989,1.25376 -0.13654,2.83891 -0.13748,5.7846 -10e-4,3.77137 -0.0432,4.55468 -0.21953,4.09516 z m -58.206114,-7.42809 c 0,-3.57011 0.02679,-5.00689 0.09413,-5.04851 0.1448,-0.0895 0.241808,0.13514 0.243238,0.56324 0.0019,0.56138 0.0071,0.56018 1.11537,-0.25726 3.214106,-2.37067 3.702357,-2.82718 3.729331,-3.48689 0.02328,-0.56945 0.171078,-0.88113 0.246983,-0.52087 0.09407,0.44649 -0.05876,13.26292 -0.158554,13.29616 -0.08386,0.0279 -0.105833,-0.99341 -0.105833,-4.91981 0,-2.72529 -0.032,-4.97484 -0.07111,-4.99901 -0.03911,-0.0242 -0.696338,0.42005 -1.4605,0.98718 -0.764162,0.56712 -1.827535,1.33952 -2.363052,1.71645 -0.973667,0.68532 -0.973667,0.68532 -0.995772,4.17249 -0.01916,3.02182 -0.03893,3.48717 -0.148167,3.48717 -0.110211,0 -0.126061,-0.62745 -0.126061,-4.99034 z m 1.216498,-2.99113 c 0.648121,-0.43799 3.317406,-2.45919 3.677056,-2.78429 0.260949,-0.23588 0.27757,-0.28344 0.254,-0.7268 -0.03477,-0.654 -0.07441,-0.64465 -1.263816,0.29826 -0.893215,0.7081 -2.272624,1.75112 -3.354571,2.53651 -0.250509,0.18184 -0.275167,0.23982 -0.275167,0.64699 0,0.66846 0.01601,0.66894 0.962498,0.0293 z m 29.696726,-4.94126 c -0.70342,-0.4927 -0.4644,-1.40909 0.50048,-1.91884 0.37863,-0.20003 0.37863,-0.20003 0.44904,-2.94506 0.0748,-2.915287 0.0815,-2.957262 0.49716,-3.089175 0.34816,-0.110503 0.49076,0.174801 0.49076,0.981891 0,0.926839 -0.0815,0.873703 1.60867,1.048259 3.60317,0.372118 3.21733,0.07343 3.21733,2.490635 0,1.92909 0,1.92909 -0.38609,2.20123 -0.37904,0.26717 -0.62991,0.67648 -0.62991,1.02774 0,0.0946 -0.0381,0.17205 -0.0847,0.17205 -0.0536,0 -0.0847,-0.60678 -0.0847,-1.651 0,-2.0769 0.0905,-1.94595 -1.40912,-2.03945 -2.23412,-0.13929 -2.09016,-0.24745 -2.14688,1.61292 -0.0468,1.53479 -0.0862,1.65464 -0.67647,2.05636 -0.3447,0.2346 -1.04652,0.26195 -1.34564,0.0524 z m 13.32628,-8.8385 c 0.0294,-0.04761 0.28885,-0.205074 0.5765,-0.349922 1.25207,-0.630494 1.64983,-1.156318 1.96094,-2.592298 0.39134,-1.806327 0.65817,-2.269413 1.57403,-2.731736 0.72972,-0.36836 1.21663,-1.004748 1.69252,-2.212098 0.0955,-0.24237 0.32809,-0.767008 0.51681,-1.165862 0.39917,-0.843722 0.7948,-1.810125 0.87776,-2.144156 0.0701,-0.282098 0.19159,-0.374881 0.25944,-0.198074 0.0679,0.17702 -0.24309,1.092367 -0.75081,2.209707 -0.23276,0.512234 -0.55066,1.232998 -0.70643,1.6017 -0.15577,0.3687 -0.38216,0.819872 -0.50308,1.002601 -0.30197,0.456292 -0.27012,0.462583 1.00023,0.19757 0.6165,-0.128613 1.38686,-0.287536 1.71188,-0.353162 0.8853,-0.17875 2.21148,-0.609486 2.83517,-0.92085 0.50371,-0.251467 1.60826,-0.630494 2.24654,-0.770895 1.63991,-0.360733 1.94646,-0.796345 2.15733,-3.065675 0.17715,-1.906552 0.81584,-3.119855 2.26268,-4.298446 1.05275,-0.85756 1.48653,-0.01653 1.08784,2.109156 -0.42039,2.241472 -1.17516,3.594554 -2.46592,4.420715 -0.34021,0.217751 -0.48465,0.386229 -0.69538,0.811064 -0.94442,1.904048 -2.49149,2.9719 -6.24122,4.307974 -1.05878,0.377255 -2.40721,0.948067 -3.59833,1.523233 -1.04775,0.505933 -2.2098,1.038658 -2.58234,1.183833 -0.37253,0.145176 -1.19499,0.547057 -1.82769,0.893069 -1.05918,0.579249 -1.52321,0.760572 -1.38847,0.542552 z m 13.20335,-0.935072 c -0.0758,-0.122599 -0.10781,-0.104617 0.89248,-0.500853 1.16127,-0.460002 2.53876,-1.185028 3.62191,-1.906347 0.6173,-0.411087 0.89655,-0.553247 0.96071,-0.489084 0.25275,0.252757 -2.86959,2.079758 -4.66233,2.728109 -0.82933,0.299931 -0.74245,0.281955 -0.81277,0.168175 z M 91.776235,94.559293 c -0.468828,-0.204209 -0.921208,-0.865207 -1.044762,-1.526558 -0.115847,-0.620097 0.02954,-0.594264 0.234344,0.04164 0.229089,0.7113 0.56105,1.118335 1.070853,1.313031 0.206439,0.07884 0.354816,0.176563 0.329724,0.217162 -0.06405,0.103633 -0.287679,0.08648 -0.590159,-0.04528 z m -2.090308,-5.786408 c -0.02597,-3.844772 0.267699,-3.49078 -2.310412,-2.784993 -2.051855,0.561717 -2.016395,0.555098 -2.051922,0.38307 -0.02045,-0.09902 0.07274,-0.164063 0.335598,-0.234224 0.200149,-0.05342 0.554408,-0.149787 0.787242,-0.21414 4.006931,-1.107479 3.583897,-1.198925 3.560573,0.769674 -0.01039,0.876579 -0.02519,2.441504 -0.0329,3.477613 -0.01194,1.605191 -0.03265,1.883833 -0.140018,1.883833 -0.109013,0 -0.128994,-0.442415 -0.148166,-3.280833 z m -6.349634,-2.667 c -0.02518,-2.579216 0.03634,-2.357072 -0.615194,-2.221177 -0.281249,0.05866 -0.154817,-0.09463 0.422376,-0.512122 0.201265,-0.145578 0.244156,-0.246604 0.27801,-0.654844 0.0569,-0.686134 -0.07605,-0.699222 -0.841536,-0.08284 -2.097186,1.688681 -3.372516,2.448953 -3.372516,2.010482 0,-0.167077 0.04288,-0.211667 0.20353,-0.211667 0.24211,0 2.217825,-1.424625 3.253285,-2.345841 1.059267,-0.942396 0.98622,-1.156844 0.957131,2.809937 -0.01365,1.861188 -0.04307,3.413511 -0.06538,3.449607 -0.157434,0.254732 -0.199527,-0.174722 -0.219708,-2.241536 z"
         id="path5711" /></g></g></svg>
