<?xml version="1.0" encoding="UTF-8" standalone="no"?>
<!-- Created with Inkscape (http://www.inkscape.org/) -->

<svg
   width="34.654663mm"
   height="42.404556mm"
   viewBox="0 0 34.654663 42.404556"
   version="1.1"
   id="svg3769"
   xml:space="preserve"
   inkscape:version="1.2.1 (9c6d41e, 2022-07-14)"
   sodipodi:docname="QuizCube Logo v1_small_laser.svg"
   xmlns:inkscape="http://www.inkscape.org/namespaces/inkscape"
   xmlns:sodipodi="http://sodipodi.sourceforge.net/DTD/sodipodi-0.dtd"
   xmlns="http://www.w3.org/2000/svg"
   xmlns:svg="http://www.w3.org/2000/svg"><sodipodi:namedview
     id="namedview3771"
     pagecolor="#505050"
     bordercolor="#eeeeee"
     borderopacity="1"
     inkscape:showpageshadow="0"
     inkscape:pageopacity="0"
     inkscape:pagecheckerboard="0"
     inkscape:deskcolor="#505050"
     inkscape:document-units="mm"
     showgrid="false"
     inkscape:zoom="4.7510103"
     inkscape:cx="68.196021"
     inkscape:cy="80.088229"
     inkscape:window-width="1800"
     inkscape:window-height="1097"
     inkscape:window-x="0"
     inkscape:window-y="44"
     inkscape:window-maximized="1"
     inkscape:current-layer="layer1" /><defs
     id="defs3766" /><g
     inkscape:label="Layer 1"
     inkscape:groupmode="layer"
     id="layer1"
     transform="translate(-93.835342,-93.616801)"><path
       id="path5725"
       style="display:none;fill:#333333;stroke-width:0.0846667"
       d="m 111.07126,93.617025 c -1.46493,-0.01563 -2.84013,0.786925 -5.79965,2.329573 -0.80084,0.417432 -2.15669,1.109139 -3.01274,1.536857 -6.278344,3.136905 -6.158793,3.048535 -6.158793,4.548555 0,1.54483 0.01046,1.55485 3.246831,3.13418 4.549032,2.2199 10.717742,5.36975 11.286132,5.76296 0.17164,0.11875 0.40273,0.23636 0.51315,0.26096 0.62473,0.13942 1.08585,-0.0186 2.70836,-0.92707 0.77465,-0.43376 3.0352,-1.6461 5.02347,-2.69441 8.3231,-4.38833 7.54928,-3.79195 7.48378,-5.76709 -0.0424,-1.27744 0.0845,-1.17826 -4.06952,-3.18327 -1.71212,-0.826375 -3.6098,-1.760327 -4.21732,-2.075842 -3.78298,-1.964695 -5.44428,-2.908761 -7.0037,-2.925403 z m 2.27789,2.503206 c 2.29003,0.0033 2.9683,0.107696 2.9683,0.455786 0,0.03283 -0.0107,0.05938 -0.0372,0.08268 -0.0637,0.02827 -0.12838,0.05301 -0.19482,0.07286 -0.18188,0.03665 -0.49855,0.06702 -1.048,0.111105 -1.5666,0.125691 -2.61367,0.397943 -2.67787,0.696081 -0.0242,0.112263 -0.13929,1.137951 -0.25528,2.279448 -0.31006,3.049539 -0.28609,2.925169 -0.63355,3.288679 -0.36801,0.38503 -1.02484,0.70472 -1.8526,0.90176 -0.13561,0.0323 -0.26727,0.0577 -0.39533,0.078 -0.38697,0.0455 -0.77904,0.0451 -1.16427,-0.003 -0.0145,-0.002 -0.03,-0.005 -0.045,-0.007 -0.33168,-0.0855 -0.53278,-0.25406 -0.53278,-0.49506 0,-0.75602 1.38777,-1.57778 2.88044,-1.70583 0.34884,-0.0299 0.63482,-0.0799 0.63562,-0.11059 0.004,-0.14723 0.39616,-4.282778 0.45786,-4.828127 0.0101,-0.08978 0.0191,-0.165504 0.0289,-0.236678 0.0104,-0.06397 0.0226,-0.127285 0.0362,-0.19017 0.10534,-0.396596 0.39816,-0.391678 1.82934,-0.38964 z m -4.54339,1.897042 c 0.54958,0.0017 1.01082,0.02683 1.20768,0.07958 0.0333,0.01262 0.0657,0.02823 0.0982,0.04341 0.12406,0.116838 0.10204,0.197814 -0.12041,0.257865 -0.0282,0.0064 -0.0565,0.01203 -0.0847,0.01809 -0.25723,0.0539 -0.69988,0.09027 -1.39733,0.120406 -2.43299,0.10513 -2.37037,0.05337 -2.52646,2.099096 -0.14444,1.89287 -0.3269,2.23556 -1.42989,2.68355 -1.59279,0.64697 -3.02685,-0.0289 -2.13269,-1.0051 0.52829,-0.57672 1.08799,-0.78755 2.13011,-0.80305 1.15768,-0.0172 1.04165,0.14653 1.17564,-1.657264 0.083,-1.116517 0.15098,-1.548073 0.25321,-1.606103 0.25179,-0.142946 1.71129,-0.234012 2.8267,-0.230477 z m 7.84552,0.179317 c 0.99878,-0.0157 3.09319,0.38416 3.51451,0.713135 0.35592,0.277924 -0.006,0.478984 -0.73535,0.408244 -0.70639,-0.06854 -2.16911,0.0862 -2.45773,0.259932 -0.20168,0.121339 -0.22786,0.234248 -0.28526,1.224729 -0.099,1.70612 -0.26244,1.99872 -1.37718,2.46704 -0.32508,0.13657 -0.73263,0.22813 -1.12447,0.2713 -0.27435,0.006 -0.55075,-0.009 -0.82166,-0.0155 -0.0782,-0.01 -0.16888,-0.0161 -0.25787,-0.03 -0.027,-0.008 -0.0537,-0.0169 -0.0775,-0.0269 -0.92527,-0.38632 0.30908,-1.51545 1.98334,-1.81436 0.86436,-0.15431 0.86911,-0.16253 0.94671,-1.63091 0.0811,-1.533644 0.12091,-1.743 0.33952,-1.79317 0.0899,-0.02063 0.21026,-0.03135 0.35295,-0.03359 z m 11.1435,6.09317 c -0.34102,0.0167 -0.84738,0.41633 -1.59731,0.85214 -0.76825,0.44643 -2.19659,1.27054 -3.17449,1.8309 -0.9779,0.56037 -2.27353,1.31287 -2.87889,1.67225 -0.60537,0.35938 -1.59605,0.93069 -2.20142,1.26969 -0.60536,0.33901 -1.44332,0.81683 -1.86242,1.06195 -0.4191,0.24512 -1.14301,0.66881 -1.60868,0.94154 -0.99557,0.58308 -1.40732,0.93387 -1.71928,1.46451 -0.36807,0.6254 -0.3595,21.33013 0.009,21.64674 h 5.1e-4 c 0.53552,0.46066 0.76625,0.38397 3.27629,-1.08985 0.95462,-0.56053 2.61195,-1.53311 3.68298,-2.16111 8.07899,-4.73714 8.4234,-4.96972 8.68009,-5.86476 0.0518,-0.1807 0.0827,-4.17248 0.0827,-10.68875 0,-8.86609 0.11884,-10.97482 -0.68885,-10.93525 z m -33.043458,0.67386 c -0.167721,0.007 -0.273747,0.0754 -0.413928,0.16743 -0.498689,0.32733 -0.470842,-0.30482 -0.488342,11.12439 -0.01948,12.72032 -0.266036,11.45622 2.503206,12.85813 0.6985,0.35361 1.841914,0.94764 2.540414,1.31981 1.515048,0.80725 5.298628,2.76522 8.481138,4.38888 2.76664,1.4115 3.31463,1.50824 3.67729,0.64854 0.22866,-0.54211 0.16908,-21.58922 -0.0625,-22.09012 -0.28969,-0.62642 0.64535,-0.11203 -10.48773,-5.77123 -4.189609,-2.12968 -5.246348,-2.66608 -5.749518,-2.64583 z m 27.987958,5.02553 c 1.07426,0.0163 2.83782,1.1949 3.68246,2.5709 0.0899,0.15266 0.1727,0.3095 0.24856,0.46974 1.34253,2.9587 0.3293,7.58603 -2.01899,9.09454 -0.2659,0.17081 -0.41857,0.3346 -0.44907,0.48214 -0.41408,2.00005 -1.7557,3.64903 -3.4184,4.20129 -0.49916,0.16581 -0.51111,0.21247 -0.51211,2.04174 -4e-5,0.054 -9.1e-4,0.0805 -0.001,0.13022 -0.01,0.28685 -0.0175,0.57356 -0.0186,0.86042 -0.0196,0.26687 -0.0581,0.3569 -0.13591,0.42736 -0.46248,0.41853 -0.73384,0.307 -0.85989,-0.41961 -0.0109,-0.10193 -0.0209,-0.20348 -0.0367,-0.30024 -0.0154,-0.17252 -0.0268,-0.34562 -0.0377,-0.51883 -0.007,-0.1841 -0.0119,-0.38112 -0.0119,-0.60152 0,-1.63177 -8.4e-4,-1.64203 -0.19017,-1.69033 -0.58297,-0.14887 -1.06429,-0.8819 -1.17822,-1.64745 -0.0107,-0.19297 -0.0182,-0.38706 -0.0114,-0.58032 0.007,-0.0611 0.0177,-0.12151 0.031,-0.18087 0.38565,-1.72083 1.86028,-2.88741 4.03438,-3.19205 1.56331,-0.21908 2.21898,-0.70906 2.94607,-2.2009 1.29431,-2.65555 0.87471,-4.86844 -0.92294,-4.86844 -0.21367,0 -0.29778,0.8479 -0.30437,3.04994 -0.0131,0.28894 -0.0307,0.57745 -0.0605,0.86507 -0.13155,0.68571 -0.46955,1.14632 -0.82889,1.21853 -0.0858,0.007 -0.17377,0.001 -0.2589,-0.0176 -0.16472,-0.0565 -0.32414,-0.202 -0.4594,-0.45476 -0.004,-0.007 -0.007,-0.0204 -0.0103,-0.031 -0.0198,-0.11383 -0.0289,-0.23145 -0.047,-0.34158 -0.1122,-1.34001 -0.0559,-5.88218 0.0822,-7.53339 0.0272,-0.21044 0.0627,-0.41944 0.11265,-0.62632 0.15608,-0.14571 0.37517,-0.21066 0.63511,-0.20671 z m -24.060549,0.31833 c 0.18461,-0.006 0.371803,0.0346 0.525033,0.12661 1.98e-4,1.2e-4 3.18e-4,3.9e-4 5.17e-4,5.1e-4 0.116987,0.0863 0.213061,0.20074 0.276985,0.33125 0.0865,0.30613 0.08736,1.11265 0.08785,4.09381 5.42e-4,3.43641 0.02007,4.11548 0.122473,4.23901 0.241226,0.291 1.086751,0.62957 2.126481,0.85215 3.31455,0.70954 4.27941,1.26965 4.70411,2.73058 0.30074,1.0345 -0.30667,2.15888 -1.38441,2.56212 -0.43544,0.16293 -1.1331,0.26223 -1.42575,0.2098 -0.0598,-0.0388 -0.12204,-0.0752 -0.18707,-0.10593 -0.0928,-0.13121 -0.11441,-0.40047 -0.0899,-0.93586 0.0322,-0.70323 -0.0194,-0.77271 -0.48524,-0.65578 -0.19697,0.0494 -0.20516,0.0802 -0.20516,0.77205 0,0.88215 -0.0723,0.93802 -0.75447,0.58188 -2.29214,-1.19672 -3.569988,-2.80569 -4.037999,-5.08548 -0.04717,-0.22979 -0.08033,-1.09621 -0.10232,-2.18333 -0.02074,-1.82591 -0.01824,-3.65222 -0.0067,-5.47822 0.01843,-0.89728 0.04791,-1.54534 0.09043,-1.63866 0.118492,-0.26006 0.428291,-0.40675 0.745174,-0.41651 z"
       sodipodi:nodetypes="sssssscsscssscsccsscsscscsscscccsccccsscsscsssssccsccccscssssssssscccsssssccssssscscsccscssccccccsccccscsccccsccccscsccsssssccccscsccsc"
       inkscape:label="filled" /><path
       id="path3084"
       style="display:none;fill:#00ff00;stroke:#00ff03;stroke-width:0;stroke-linecap:round;stroke-linejoin:round;stroke-dasharray:none"
       d="m 110.8661,94.794212 c -0.56294,0.0066 -1.11555,0.156628 -1.60959,0.424968 -3.01365,1.457905 -5.99443,2.982865 -8.97129,4.514218 -0.947411,0.507802 -1.926581,0.964652 -2.826054,1.556022 -0.279177,0.18527 -0.269716,0.57249 -0.269033,0.87131 0.02292,0.23267 0.04518,0.50708 0.215162,0.68084 1.430001,0.80818 2.890365,1.53216 4.356415,2.28281 2.99015,1.50804 5.98668,3.00516 8.93667,4.59093 0.29255,0.12886 0.57529,0.33534 0.90256,0.34877 0.46589,-0.0616 0.8614,-0.34723 1.27887,-0.54291 2.63665,-1.41491 5.27611,-2.82474 7.92457,-4.21738 1.37388,-0.74274 2.76497,-1.46019 4.08319,-2.29974 0.15658,-0.12684 0.42685,-0.23619 0.39109,-0.47853 -0.006,-0.37836 -0.0113,-0.7612 -0.0961,-1.13171 -1.11773,-0.66972 -2.28985,-1.24446 -3.4556,-1.8251 -0.11454,-0.02781 -0.29587,-0.20225 -0.36789,-0.131542 -0.20133,0.566112 -0.78203,0.956232 -1.37934,0.962562 -0.71342,0.0439 -1.43232,0.003 -2.14246,0.098 -0.0909,0.7415 -0.13498,1.49856 -0.35341,2.21635 -0.33243,0.85843 -1.18812,1.36232 -2.01198,1.66753 -0.69899,0.26938 -1.46529,0.22664 -2.1997,0.19828 -0.45051,-0.0321 -0.9361,-0.13878 -1.25264,-0.48651 -0.8702,0.70184 -1.99977,1.00768 -3.09955,1.08107 -0.70519,0.0187 -1.50621,0.003 -2.06103,-0.4956 -0.37813,-0.34546 -0.49444,-0.89181 -0.43908,-1.38439 -0.46311,0.62587 -1.20676,0.97041 -1.93258,1.19369 -0.90076,0.2496 -1.95332,0.25386 -2.74672,-0.29917 -0.564,-0.38185 -0.8149,-1.13704 -0.60268,-1.78213 0.2695,-0.8669 1.06066,-1.47339 1.88839,-1.77011 0.50582,-0.14904 1.03332,-0.20133 1.55752,-0.23668 0.0852,-0.786584 0.0859,-1.592989 0.31265,-2.356444 0.14018,-0.495009 0.58988,-0.86546 1.10011,-0.918718 1.04429,-0.16305 2.10456,-0.22583 3.16099,-0.220692 0.39983,0.0084 0.81347,0.06349 1.18869,0.176678 0.0883,-0.468302 0.10837,-0.976222 0.36441,-1.391171 0.36567,-0.535204 1.06877,-0.608089 1.66183,-0.649531 0.24064,0.0082 -0.0883,-0.0672 -0.16676,-0.09897 -0.43219,-0.139046 -0.88892,-0.162356 -1.33961,-0.147007 z m 3.96151,3.184302 c -0.46156,0.05785 -0.92561,0.110747 -1.3782,0.221176 -0.0774,0.440775 -0.1468,0.957376 -0.20982,1.429848 -0.0711,0.538582 -0.1302,1.046632 -0.18913,1.581342 0.55963,-0.27593 1.15286,-0.50572 1.74977,-0.66818 0.1102,-0.85444 0.0524,-1.742707 0.33684,-2.56657 0.0299,-0.0731 -0.25505,0.01601 -0.30946,0.0024 z m -4.8059,1.499651 c -0.87668,0.168603 -1.77111,0.20035 -2.66078,0.225803 -0.19516,-0.01474 -0.16241,0.24117 -0.20412,0.372082 -0.10526,0.77346 -0.12243,1.56305 -0.33026,2.31977 0.68674,-0.83121 1.72504,-1.30401 2.76624,-1.5074 0.11718,-0.0525 0.34553,0.0103 0.38732,-0.10845 0.0436,-0.42554 0.0854,-0.881107 0.12841,-1.319892 -0.0289,0.006 -0.0579,0.01206 -0.0868,0.01809 z m 17.18241,6.360855 c -2.07278,1.15855 -4.10734,2.38403 -6.16761,3.56453 -1.98384,1.1615 -3.99193,2.2822 -5.95491,3.47888 -0.43422,0.29048 -0.91998,0.53937 -1.25473,0.95015 -0.16147,0.34316 -0.10793,0.74307 -0.1316,1.11248 -0.0512,3.6968 -0.0406,7.3942 -0.0373,11.09127 0.0117,2.59378 0.002,5.18814 0.0636,7.78133 -0.0412,0.22657 0.16727,0.0346 0.28051,-0.005 1.40847,-0.73886 2.75176,-1.59369 4.12666,-2.39187 0.15751,-0.10267 0.36424,-0.19841 0.48938,-0.30841 -0.42275,-0.50991 -0.42161,-1.21166 -0.48151,-1.83833 -0.039,-0.58924 -0.0677,-1.17907 -0.10037,-1.76868 -0.60722,-0.47335 -1.07488,-1.15157 -1.24746,-1.90583 -0.081,-0.57199 -0.0839,-1.16081 0.004,-1.73219 0.20752,-0.83088 0.69759,-1.5785 1.31139,-2.16838 0.97595,-0.92592 2.27873,-1.4135 3.57979,-1.66756 -0.43971,-0.22087 -0.7021,-0.67993 -0.7674,-1.15652 -0.19097,-1.19833 -0.15416,-2.41785 -0.15817,-3.62726 0.0241,-1.52178 0.026,-3.04794 0.18329,-4.56318 0.0697,-0.51261 0.12337,-1.1238 0.59037,-1.44287 0.63537,-0.46626 1.49352,-0.37204 2.20139,-0.14284 1.522,0.51449 2.8525,1.59283 3.64423,2.99413 -0.0119,-2.09788 -0.0177,-4.20474 -0.10594,-6.28902 -0.0224,0.0119 -0.0448,0.0238 -0.0672,0.0357 z m -32.158761,0.97048 c -0.0051,0.36661 -0.0156,0.79528 -0.01966,1.18617 -0.05123,4.97586 -0.04276,9.95225 -0.0069,14.92819 0.01902,1.14579 0.01133,2.29313 0.07566,3.43742 0.07579,0.417 0.14841,0.93188 0.577612,1.13599 2.257152,1.22609 4.547689,2.38982 6.829999,3.56824 2.32604,1.18382 4.63584,2.39253 7.00592,3.50028 0.15144,0.0707 0.30348,0.14002 0.45688,0.20634 0.0909,-1.19852 0.0744,-2.44177 0.0887,-3.65951 0.0146,-4.87597 -0.0139,-9.75216 -0.0855,-14.62762 -0.0183,-0.89795 -0.0282,-1.79642 -0.0734,-2.6935 -0.6863,-0.49227 -1.45529,-0.85497 -2.19449,-1.25971 -3.32418,-1.72874 -6.66431,-3.4271 -10.017553,-5.0985 -0.867593,-0.42282 -1.729632,-0.8592 -2.61806,-1.23719 -0.0064,0.20447 -0.01275,0.40893 -0.01912,0.6134 z m 3.706236,2.39985 c 0.94941,0.0102 1.818435,0.82113 1.862335,1.77549 0.086,1.24282 0.0491,2.49049 0.061,3.73549 0.0116,1.23881 -0.0216,2.48011 0.06,3.71688 1.63345,0.62275 3.42597,0.7922 4.9833,1.62199 1.00407,0.51649 1.77202,1.51308 1.90924,2.64576 0.13286,0.95362 -0.11439,1.99385 -0.81643,2.6817 -0.76592,0.79201 -1.88669,1.20661 -2.98129,1.16318 -0.27259,-0.0191 -0.54702,-0.0928 -0.77352,-0.25006 -0.5765,0.22447 -1.19881,0.006 -1.71165,-0.27719 -1.28922,-0.69232 -2.463291,-1.64535 -3.26193,-2.88397 -0.464005,-0.72544 -0.859375,-1.50836 -1.081564,-2.34324 -0.234656,-1.09315 -0.19386,-2.21998 -0.216924,-3.33141 -0.0065,-2.00858 -0.02298,-4.01766 0.01334,-6.02599 0.01859,-0.52081 0.0013,-1.11374 0.392639,-1.51538 0.379658,-0.45522 0.96603,-0.73383 1.561446,-0.71325 z m 28.540895,11.44013 c -0.44802,0.8889 -1.06726,1.70201 -1.87161,2.29689 -0.18614,0.12309 -0.24315,0.33321 -0.30242,0.53343 -0.42088,1.10449 -0.97014,2.18969 -1.83006,3.0199 -0.49255,0.5023 -1.09262,0.87904 -1.72011,1.18863 -0.16641,0.0566 -0.22408,0.18894 -0.20131,0.35647 -0.028,0.51248 -0.0408,1.01741 -0.0524,1.52145 1.66907,-1.00522 3.34144,-2.00631 4.98411,-3.05421 0.3138,-0.21286 0.62909,-0.42989 0.89925,-0.6975 0.0374,-0.25632 0.043,-0.46482 0.0563,-0.71003 0.008,-0.20149 0.017,-0.47926 0.0253,-0.71004 0.009,-0.44412 0.0228,-0.94617 0.0282,-1.41288 0.0138,-0.80919 0.0221,-1.61846 0.0317,-2.42771 -0.0157,0.0319 -0.0314,0.0637 -0.047,0.0956 z"
       inkscape:label="cut" /><path
       id="path3145"
       style="display:inline;fill:#333333;stroke-width:0.0846667"
       d="m 111.07126,93.617025 c -1.46493,-0.01563 -2.84013,0.786927 -5.79965,2.329573 -0.80084,0.417432 -2.15669,1.10914 -3.01274,1.536857 -6.278333,3.136905 -6.158793,3.048545 -6.158793,4.548555 0,1.54483 0.01046,1.55485 3.246831,3.13418 4.549032,2.2199 10.717742,5.36975 11.286132,5.76296 0.17164,0.11875 0.40273,0.23636 0.51315,0.26096 0.62473,0.13942 1.08585,-0.0186 2.70836,-0.92707 0.77465,-0.43376 3.0352,-1.6461 5.02347,-2.69441 8.32309,-4.38833 7.54928,-3.79195 7.48378,-5.76709 -0.0424,-1.27744 0.0845,-1.17826 -4.06952,-3.18327 -1.71212,-0.826374 -3.6098,-1.760328 -4.21732,-2.075842 -3.78297,-1.964693 -5.44429,-2.908761 -7.0037,-2.925403 z m 0.13332,1.174088 c 0.33885,0.0066 0.67683,0.04558 1.00097,0.149862 0.0785,0.03177 0.40756,0.107419 0.16692,0.09922 -0.59306,0.04144 -1.29625,0.114369 -1.66191,0.649572 -0.25604,0.414949 -0.27602,0.922828 -0.36432,1.39113 -0.37522,-0.113188 -0.78873,-0.168333 -1.18856,-0.176733 -1.05643,-0.0051 -2.11676,0.05761 -3.16105,0.220658 -0.51023,0.05326 -0.96001,0.423798 -1.10019,0.918807 -0.22675,0.763454 -0.22744,1.569862 -0.31264,2.356441 -0.5242,0.0353 -1.05171,0.0876 -1.55753,0.23668 -0.82773,0.29672 -1.61876,0.90302 -1.88826,1.76992 -0.21222,0.64509 0.0386,1.40047 0.60255,1.78232 0.7934,0.55303 1.84584,0.54881 2.7466,0.29921 0.72582,-0.22328 1.46959,-0.56786 1.9327,-1.19373 -0.0554,0.49258 0.0611,1.03895 0.43925,1.38441 0.55482,0.4986 1.35567,0.51428 2.06086,0.49558 1.09978,-0.0734 2.22935,-0.37923 3.09955,-1.08107 0.31654,0.34773 0.80213,0.45417 1.25264,0.48627 0.73441,0.0284 1.50087,0.0715 2.19986,-0.19792 0.82386,-0.30521 1.67934,-0.80917 2.01176,-1.6676 0.21843,-0.71779 0.26257,-1.4749 0.35347,-2.2164 0.71014,-0.095 1.42909,-0.0543 2.14251,-0.0982 0.59731,-0.006 1.17791,-0.39611 1.37924,-0.962218 0.072,-0.07071 0.2534,0.103448 0.36794,0.131258 1.16575,0.58064 2.33787,1.15549 3.4556,1.82521 0.0848,0.37051 0.0901,0.75336 0.0961,1.13171 0.0358,0.24234 -0.23461,0.35169 -0.39119,0.47853 -1.31822,0.83955 -2.70908,1.55686 -4.08296,2.2996 -2.64845,1.39264 -5.28793,2.8024 -7.92458,4.21731 -0.41747,0.19568 -0.8131,0.48152 -1.27899,0.54312 -0.32727,-0.0134 -0.61024,-0.21995 -0.90279,-0.34881 -2.94998,-1.58577 -5.94626,-3.0829 -8.9364,-4.59094 -1.46605,-0.75065 -2.926326,-1.47437 -4.356326,-2.28255 -0.169982,-0.17376 -0.192571,-0.44842 -0.215491,-0.68109 -6.83e-4,-0.29882 -0.0099,-0.686 0.269234,-0.87127 0.899473,-0.59136 1.878775,-1.04817 2.826183,-1.555972 2.97686,-1.531351 5.95738,-3.056549 8.97103,-4.514453 0.49404,-0.26834 1.04678,-0.41818 1.60972,-0.42478 0.11267,-0.0038 0.22553,-0.0053 0.33848,-0.0031 z m 2.14457,1.329118 c 2.29003,0.0033 2.9683,0.107697 2.9683,0.455786 0,0.03283 -0.0107,0.05938 -0.0372,0.08268 -0.0637,0.02827 -0.12838,0.05301 -0.19482,0.07286 -0.18188,0.03665 -0.49855,0.06702 -1.048,0.111105 -1.5666,0.125691 -2.61367,0.397943 -2.67787,0.696081 -0.0242,0.112263 -0.13929,1.137952 -0.25528,2.279448 -0.31006,3.049529 -0.2861,2.925179 -0.63355,3.288679 -0.36801,0.38503 -1.02485,0.70472 -1.8526,0.90176 -0.13561,0.0323 -0.26727,0.0577 -0.39533,0.078 -0.38697,0.0455 -0.77904,0.045 -1.16427,-0.003 -0.0145,-0.002 -0.03,-0.005 -0.045,-0.007 -0.33168,-0.0855 -0.53278,-0.25406 -0.53278,-0.49506 0,-0.75602 1.38777,-1.57779 2.88044,-1.70584 0.34884,-0.0299 0.63482,-0.0799 0.63562,-0.11059 0.004,-0.14723 0.39616,-4.282772 0.45786,-4.82812 0.0101,-0.08978 0.0191,-0.165505 0.0289,-0.236679 0.0104,-0.06397 0.0226,-0.127284 0.0362,-0.190169 0.10534,-0.396595 0.39817,-0.391678 1.82934,-0.38964 z m 1.75959,1.827279 c 0.0234,0.0021 0.0359,0.01015 0.0284,0.02842 -0.28444,0.823862 -0.22673,1.712329 -0.33693,2.56677 -0.59691,0.16246 -1.19014,0.39225 -1.74977,0.66818 0.0589,-0.53471 0.11804,-1.04272 0.18914,-1.581304 0.063,-0.472472 0.13241,-0.989113 0.20981,-1.429887 0.45259,-0.110429 0.91665,-0.163325 1.37821,-0.221175 0.0408,0.01021 0.21104,-0.03742 0.28112,-0.03101 z m -6.30298,0.06976 c 0.54958,0.0017 1.01082,0.02683 1.20768,0.07958 0.0333,0.01262 0.0657,0.02823 0.0982,0.04341 0.12406,0.116838 0.10204,0.197814 -0.12041,0.257865 -0.0282,0.0064 -0.0566,0.01203 -0.0847,0.01809 -0.25723,0.0539 -0.69988,0.09027 -1.39733,0.120406 -2.43299,0.10513 -2.37037,0.05337 -2.52646,2.099099 -0.14444,1.89287 -0.3269,2.23557 -1.42989,2.68355 -1.59279,0.64697 -3.02684,-0.0289 -2.13269,-1.0051 0.52829,-0.57672 1.08799,-0.78755 2.13011,-0.80305 1.15768,-0.0172 1.04165,0.14653 1.17564,-1.657267 0.083,-1.116516 0.15098,-1.548073 0.25321,-1.606103 0.25179,-0.142946 1.71129,-0.234012 2.8267,-0.230477 z m 7.84552,0.179317 c 0.99878,-0.0157 3.09319,0.38416 3.51451,0.713135 0.35592,0.277924 -0.006,0.478984 -0.73535,0.408244 -0.70639,-0.06854 -2.16912,0.0862 -2.45773,0.259932 -0.20168,0.121339 -0.22786,0.234252 -0.28526,1.224732 -0.099,1.70612 -0.26244,1.99872 -1.37718,2.46704 -0.32508,0.13657 -0.73264,0.22813 -1.12447,0.2713 -0.27435,0.006 -0.55075,-0.009 -0.82166,-0.0155 -0.0782,-0.01 -0.16888,-0.0161 -0.25787,-0.03 -0.027,-0.008 -0.0537,-0.0169 -0.0775,-0.0269 -0.92527,-0.38632 0.30908,-1.51545 1.98334,-1.81436 0.86436,-0.15431 0.86911,-0.16253 0.94671,-1.63091 0.0811,-1.533643 0.12091,-1.743003 0.33952,-1.793173 0.0899,-0.02063 0.21026,-0.03135 0.35295,-0.03359 z m -6.54276,1.263489 c -0.043,0.438785 -0.0845,0.894284 -0.12815,1.319824 -0.0418,0.11874 -0.2704,0.056 -0.38758,0.10852 -1.0412,0.20339 -2.0795,0.67619 -2.76624,1.5074 0.20783,-0.75672 0.22496,-1.5463 0.33022,-2.31976 0.0417,-0.130913 0.009,-0.386811 0.20412,-0.372071 0.88967,-0.02545 1.78414,-0.05722 2.66082,-0.225826 0.0289,-0.006 0.0579,-0.01209 0.0868,-0.01809 z m 17.68626,4.829684 c -0.34102,0.0167 -0.84739,0.41633 -1.59731,0.85214 -0.76825,0.44643 -2.19659,1.27054 -3.17449,1.8309 -0.9779,0.56037 -2.27353,1.31287 -2.87889,1.67225 -0.60537,0.35938 -1.59605,0.93069 -2.20142,1.26969 -0.60536,0.33901 -1.44332,0.81683 -1.86242,1.06195 -0.4191,0.24512 -1.14301,0.66881 -1.60868,0.94154 -0.99557,0.58308 -1.40732,0.93387 -1.71928,1.46451 -0.36807,0.6254 -0.35971,21.33013 0.009,21.64674 h 5.1e-4 c 0.53552,0.46066 0.76625,0.38397 3.27629,-1.08985 0.95462,-0.56053 2.61195,-1.53311 3.68298,-2.16111 8.07898,-4.73714 8.4234,-4.96972 8.68009,-5.86476 0.0518,-0.1807 0.0827,-4.17249 0.0827,-10.68875 0,-8.86608 0.11884,-10.97482 -0.68885,-10.93525 z m -33.043458,0.67386 c -0.16772,0.007 -0.273747,0.0754 -0.413928,0.16743 -0.498688,0.32733 -0.470842,-0.30481 -0.488342,11.12439 -0.01948,12.7203 -0.266033,11.45622 2.503206,12.85813 0.6985,0.35361 1.841914,0.94764 2.540414,1.31981 1.515048,0.80725 5.298628,2.76522 8.481138,4.38888 2.76664,1.4115 3.31463,1.50824 3.67729,0.64854 0.22866,-0.54211 0.16905,-21.58922 -0.0625,-22.09012 -0.28969,-0.62642 0.64534,-0.11203 -10.48773,-5.77123 -4.189603,-2.12968 -5.246348,-2.66608 -5.749518,-2.64583 z m 32.520498,0.84026 c 0.0882,2.08428 0.094,4.19114 0.10593,6.28902 -0.79172,-1.4013 -2.12222,-2.47964 -3.64422,-2.99413 -0.70787,-0.2292 -1.56604,-0.32364 -2.20141,0.14262 -0.467,0.31907 -0.52096,0.9302 -0.59066,1.44281 -0.15729,1.51524 -0.15884,3.04177 -0.18294,4.56355 0.004,1.2094 -0.0328,2.42884 0.15813,3.62716 0.0653,0.47659 0.32769,0.93565 0.7674,1.15652 -1.30106,0.25406 -2.60368,0.74168 -3.57963,1.6676 -0.6138,0.58988 -1.10403,1.33747 -1.31155,2.16834 -0.0879,0.57138 -0.0851,1.16021 -0.004,1.7322 0.17258,0.75426 0.64025,1.43248 1.24747,1.90583 0.0327,0.5896 0.0613,1.17964 0.10025,1.76888 0.0599,0.62667 0.0589,1.32822 0.48162,1.83813 -0.12514,0.11 -0.33186,0.20584 -0.48937,0.30851 -1.3749,0.79818 -2.71841,1.65272 -4.12688,2.39158 -0.11324,0.0396 -0.32129,0.23174 -0.28009,0.005 -0.0616,-2.59319 -0.0519,-5.18766 -0.0636,-7.78144 -0.003,-3.69706 -0.014,-7.39451 0.0372,-11.09131 0.0237,-0.36941 -0.0302,-0.76943 0.13125,-1.11259 0.33475,-0.41078 0.82049,-0.65933 1.25471,-0.94981 1.96298,-1.19668 3.97135,-2.31736 5.95519,-3.47886 2.06027,-1.1805 4.0948,-2.40609 6.16758,-3.56464 l 5.2e-4,5.1e-4 z m -32.207338,0.39222 c 0.888427,0.37799 1.750336,0.81432 2.617928,1.23714 3.35324,1.67139 6.69382,3.36965 10.01799,5.09839 0.7392,0.40474 1.50788,0.7676 2.19418,1.25987 0.0452,0.89708 0.0551,1.79543 0.0734,2.69338 0.0716,4.87545 0.10039,9.75157 0.0858,14.62753 -0.0143,1.21774 0.002,2.46121 -0.0889,3.65973 -0.1534,-0.0663 -0.30538,-0.13549 -0.45682,-0.20619 -2.37007,-1.10775 -4.67973,-2.31675 -7.00577,-3.50057 -2.28231,-1.17841 -4.572924,-2.34216 -6.830074,-3.56825 -0.429201,-0.20411 -0.501952,-0.71885 -0.577742,-1.13585 -0.06433,-1.14429 -0.05643,-2.29173 -0.07545,-3.43752 -0.03586,-4.97593 -0.04451,-9.95243 0.0067,-14.92828 0.0041,-0.39089 0.01454,-0.81937 0.01964,-1.18598 0.0064,-0.20447 0.01272,-0.40893 0.01912,-0.6134 z m 3.687113,3.01325 c -0.595415,-0.0206 -1.182004,0.25792 -1.561662,0.71314 -0.391338,0.40164 -0.373634,0.99486 -0.392224,1.51567 -0.03632,2.00833 -0.01994,4.01741 -0.01344,6.02599 0.02306,1.11143 -0.01761,2.23791 0.217041,3.33106 0.222189,0.83488 0.617583,1.61809 1.081588,2.34353 0.798638,1.23862 1.972602,2.19174 3.261822,2.88406 0.51284,0.28319 1.13502,0.50145 1.71152,0.27698 0.2265,0.15726 0.50101,0.23102 0.7736,0.25012 1.0946,0.0434 2.21529,-0.37123 2.98121,-1.16324 0.70204,-0.68785 0.94935,-1.72787 0.81649,-2.68149 -0.13722,-1.13268 -0.90538,-2.12934 -1.90945,-2.64583 -1.55732,-0.82979 -3.34971,-0.99938 -4.98315,-1.62212 -0.0816,-1.23677 -0.0483,-2.47828 -0.06,-3.71709 -0.0119,-1.245 0.025,-2.49235 -0.061,-3.73517 -0.0439,-0.95436 -0.91301,-1.76541 -1.862419,-1.77561 z m 23.987685,0.7798 c 1.07426,0.0163 2.83782,1.19491 3.68246,2.5709 0.0899,0.15266 0.1727,0.3095 0.24856,0.46974 1.34253,2.9587 0.32929,7.58603 -2.01899,9.09454 -0.2659,0.17081 -0.41857,0.3346 -0.44907,0.48214 -0.41408,2.00005 -1.7557,3.64903 -3.4184,4.20129 -0.49916,0.16581 -0.51111,0.21247 -0.51211,2.04174 -4e-5,0.054 -9.5e-4,0.0805 -0.001,0.13022 -0.01,0.28685 -0.0175,0.57356 -0.0186,0.86042 -0.0196,0.26687 -0.0581,0.3569 -0.13591,0.42736 -0.46248,0.41853 -0.73384,0.307 -0.85989,-0.41961 -0.0109,-0.10193 -0.0209,-0.20348 -0.0367,-0.30024 -0.0154,-0.17252 -0.0268,-0.34562 -0.0377,-0.51883 -0.007,-0.1841 -0.0119,-0.38112 -0.0119,-0.60152 0,-1.63177 -8.4e-4,-1.64203 -0.19017,-1.69033 -0.58297,-0.14887 -1.0643,-0.8819 -1.17822,-1.64745 -0.0107,-0.19297 -0.0182,-0.38706 -0.0114,-0.58032 0.007,-0.0611 0.0177,-0.12151 0.031,-0.18087 0.38565,-1.72083 1.86028,-2.88742 4.03438,-3.19205 1.56331,-0.21908 2.21899,-0.70907 2.94607,-2.2009 1.29431,-2.65555 0.87471,-4.86844 -0.92294,-4.86844 -0.21367,0 -0.29778,0.8479 -0.30437,3.04994 -0.0131,0.28894 -0.0307,0.57745 -0.0605,0.86507 -0.13155,0.68571 -0.46955,1.14632 -0.82889,1.21853 -0.0858,0.007 -0.17377,0.001 -0.2589,-0.0176 -0.16472,-0.0565 -0.32414,-0.202 -0.4594,-0.45476 -0.004,-0.007 -0.007,-0.0204 -0.0103,-0.031 -0.0198,-0.11383 -0.0289,-0.23145 -0.047,-0.34158 -0.1122,-1.34001 -0.0559,-5.88219 0.0822,-7.53339 0.0272,-0.21044 0.0627,-0.41944 0.11265,-0.62632 0.15608,-0.14571 0.37517,-0.21066 0.63511,-0.20671 z m -24.060549,0.31833 c 0.18461,-0.006 0.371803,0.0346 0.525033,0.12661 l 5.17e-4,5.1e-4 c 0.116986,0.0863 0.213061,0.20074 0.276985,0.33125 0.0865,0.30613 0.08736,1.11265 0.08785,4.09381 5.42e-4,3.4364 0.02007,4.11548 0.122473,4.23901 0.241226,0.291 1.086761,0.62957 2.126481,0.85215 3.31455,0.70954 4.27941,1.26965 4.70411,2.73058 0.30074,1.0345 -0.30667,2.15888 -1.38441,2.56212 -0.43544,0.16293 -1.1331,0.26223 -1.42575,0.2098 -0.0598,-0.0388 -0.12204,-0.0752 -0.18707,-0.10593 -0.0928,-0.13121 -0.11443,-0.40047 -0.0899,-0.93586 0.0322,-0.70323 -0.0194,-0.77271 -0.48524,-0.65578 -0.19697,0.0494 -0.20516,0.0802 -0.20516,0.77205 0,0.88215 -0.0723,0.93802 -0.75447,0.58188 -2.292141,-1.19672 -3.569989,-2.80569 -4.037999,-5.08548 -0.04717,-0.22979 -0.08033,-1.09621 -0.10232,-2.18333 -0.02074,-1.82591 -0.01826,-3.65222 -0.0067,-5.47822 0.01843,-0.89728 0.04791,-1.54534 0.09043,-1.63866 0.118492,-0.26006 0.428292,-0.40675 0.745174,-0.41651 z m 28.660779,10.2464 c -0.01,0.80925 -0.0177,1.61857 -0.0315,2.42776 -0.005,0.46671 -0.0194,0.96871 -0.0284,1.41283 -0.008,0.23078 -0.0173,0.50855 -0.0253,0.71004 -0.0133,0.24521 -0.0189,0.45371 -0.0563,0.71003 -0.27016,0.26761 -0.58537,0.48477 -0.89917,0.69763 -1.64267,1.0479 -3.31512,2.04886 -4.98419,3.05408 0.0116,-0.50404 0.0242,-1.00887 0.0522,-1.52135 -0.0228,-0.16753 0.0351,-0.29997 0.20154,-0.35657 0.62749,-0.30959 1.22776,-0.68626 1.72031,-1.18856 0.85992,-0.83021 1.40898,-1.91548 1.82986,-3.01997 0.0593,-0.20022 0.11617,-0.41021 0.30231,-0.5333 0.80435,-0.59488 1.4237,-1.40812 1.87172,-2.29702 0.0156,-0.0319 0.0313,-0.0637 0.047,-0.0956 z" /></g></svg>
